<svg width="46" height="46" viewBox="0 0 46 46" fill="none" xmlns="http://www.w3.org/2000/svg">
<path d="M33.7332 16.8667H35.7776C36.3419 16.8667 36.7998 17.3247 36.7998 17.8889V28.1111C36.7998 28.6754 36.3419 29.1334 35.7776 29.1334H33.7332C33.1689 29.1334 32.7109 28.6754 32.7109 28.1111V17.8889C32.7109 17.3247 33.1689 16.8667 33.7332 16.8667Z" stroke="#3C3C3C" stroke-width="2"/>
<path d="M29.6443 12.7778H31.6887C32.253 12.7778 32.711 13.2358 32.711 13.8001V32.2001C32.711 32.7643 32.253 33.2223 31.6887 33.2223H29.6443C29.08 33.2223 28.6221 32.7643 28.6221 32.2001V13.8001C28.6221 13.2358 29.08 12.7778 29.6443 12.7778Z" stroke="#3C3C3C" stroke-width="2"/>
<path d="M15.3328 12.7778H17.3772C17.9415 12.7778 18.3994 13.2358 18.3994 13.8001V32.2001C18.3994 32.7643 17.9415 33.2223 17.3772 33.2223H15.3328C14.7685 33.2223 14.3105 32.7643 14.3105 32.2001V13.8001C14.3105 13.2358 14.7685 12.7778 15.3328 12.7778Z" stroke="#3C3C3C" stroke-width="2"/>
<path d="M11.2439 16.8667H13.2883C13.8526 16.8667 14.3106 17.3247 14.3106 17.8889V28.1111C14.3106 28.6754 13.8526 29.1334 13.2883 29.1334H11.2439C10.6796 29.1334 10.2217 28.6754 10.2217 28.1111V17.8889C10.2217 17.3247 10.6796 16.8667 11.2439 16.8667Z" stroke="#3C3C3C" stroke-width="2"/>
<path d="M36.7998 23H39.8665" stroke="#3C3C3C" stroke-width="2"/>
<path d="M18.3994 23H28.6216" stroke="#3C3C3C" stroke-width="2"/>
<path d="M7.15527 23H10.2219" stroke="#3C3C3C" stroke-width="2"/>
</svg>
