<svg width="46" height="46" viewBox="0 0 46 46" fill="none" xmlns="http://www.w3.org/2000/svg">
<path d="M11.2449 9.71106H35.7782C36.3425 9.71106 36.8004 10.169 36.8004 10.7333V35.2666C36.8004 35.8309 36.3425 36.2888 35.7782 36.2888H11.2449C10.6806 36.2888 10.2227 35.8309 10.2227 35.2666V10.7333C10.2227 10.169 10.6806 9.71106 11.2449 9.71106Z" stroke="#3C3C3C" stroke-width="2"/>
<path d="M36.8004 17.8888H10.2227" stroke="#3C3C3C" stroke-width="2"/>
<path d="M32.7117 12.7777C33.2759 12.7777 33.7339 13.2357 33.7339 13.7999C33.7339 14.3642 33.2759 14.8222 32.7117 14.8222C32.1474 14.8222 31.6895 14.3642 31.6895 13.7999C31.6895 13.2357 32.1474 12.7777 32.7117 12.7777Z" fill="#3C3C3C"/>
<path d="M26.5779 12.7777C27.1422 12.7777 27.6001 13.2357 27.6001 13.7999C27.6001 14.3642 27.1422 14.8222 26.5779 14.8222C26.0136 14.8222 25.5557 14.3642 25.5557 13.7999C25.5557 13.2357 26.0136 12.7777 26.5779 12.7777Z" fill="#3C3C3C"/>
<path d="M20.4451 12.7777C21.0093 12.7777 21.4673 13.2357 21.4673 13.7999C21.4673 14.3642 21.0093 14.8222 20.4451 14.8222C19.8808 14.8222 19.4229 14.3642 19.4229 13.7999C19.4229 13.2357 19.8808 12.7777 20.4451 12.7777Z" fill="#3C3C3C"/>
<path d="M14.3113 12.7777C14.8756 12.7777 15.3335 13.2357 15.3335 13.7999C15.3335 14.3642 14.8756 14.8222 14.3113 14.8222C13.747 14.8222 13.2891 14.3642 13.2891 13.7999C13.2891 13.2357 13.747 12.7777 14.3113 12.7777Z" fill="#3C3C3C"/>
<path d="M14.3115 21.9777H32.7115V32.1999H14.3115V21.9777Z" stroke="#3C3C3C" stroke-width="2"/>
<path d="M36.8004 17.8888H10.2227" stroke="#3C3C3C" stroke-width="2"/>
</svg>
