<svg width="46" height="46" viewBox="0 0 46 46" fill="none" xmlns="http://www.w3.org/2000/svg">
<path d="M23.6396 20.8278H29.773" stroke="#3C3C3C" stroke-width="2"/>
<path d="M10.3506 16.7389H34.8839" stroke="#3C3C3C" stroke-width="2"/>
<path d="M29.7725 23.8945V13.6723C29.7725 11.9784 28.3997 10.6056 26.7059 10.6056C25.012 10.6056 23.6392 11.9784 23.6392 13.6723M23.6392 23.8945V13.6723C23.6392 11.9784 22.2663 10.6056 20.5725 10.6056C18.8787 10.6056 17.5059 11.9784 17.5059 13.6723" stroke="#3C3C3C" stroke-width="2"/>
<mask id="mask0_757_29601" style="mask-type:alpha" maskUnits="userSpaceOnUse" x="2" y="18" width="41" height="22">
<path d="M42.9522 18.6561V39.2508H2.04492V18.6561H42.9522Z" fill="black"/>
</mask>
<g mask="url(#mask0_757_29601)">
<path d="M10.3615 35.6265C9.62137 35.6265 8.88128 35.3709 8.31701 34.8598C7.75274 34.3487 7.01266 34.0931 6.27257 34.0931C5.53248 34.0931 4.79239 34.3487 4.22812 34.8598C3.66386 35.3709 2.92377 35.6265 2.18368 35.6265C1.44359 35.6265 0.7035 35.3709 0.139233 34.8598C-0.425033 34.3487 -1.16512 34.0931 -1.90521 34.0931C-2.6453 34.0931 -3.38539 34.3487 -3.94966 34.8598C-4.51392 35.3709 -5.25401 35.6265 -5.9941 35.6265C-6.73419 35.6265 -7.47428 35.3709 -8.03854 34.8598C-8.60281 34.3487 -9.3429 34.0931 -10.083 34.0931C-10.8231 34.0931 -11.5632 34.3487 -12.1274 34.8598C-12.6917 35.3709 -13.4318 35.6265 -14.1719 35.6265M59.4159 35.6408C58.6758 35.6408 57.9357 35.3852 57.3714 34.8741C56.8071 34.363 56.0671 34.1075 55.327 34.1075C54.5869 34.1075 53.8468 34.363 53.2825 34.8741C52.7183 35.3852 51.9782 35.6408 51.2381 35.6408C50.498 35.6408 49.7579 35.3852 49.1936 34.8741C48.6294 34.363 47.8893 34.1075 47.1492 34.1075C46.4091 34.1075 45.669 34.363 45.1047 34.8741C44.5405 35.3852 43.8004 35.6408 43.0603 35.6408C42.3202 35.6408 41.5801 35.3852 41.0159 34.8741C40.4516 34.363 39.7115 34.1075 38.9714 34.1075C38.2313 34.1075 37.4912 34.363 36.927 34.8741C36.3627 35.3852 35.6226 35.6408 34.8825 35.6408M34.8835 35.65C34.1435 35.65 33.4034 35.3944 32.8391 34.8833C32.2748 34.3722 31.5347 34.1167 30.7947 34.1167C30.0546 34.1167 29.3145 34.3722 28.7502 34.8833C28.1859 35.3944 27.4459 35.65 26.7058 35.65C25.9657 35.65 25.2256 35.3944 24.6613 34.8833C24.0971 34.3722 23.357 34.1167 22.6169 34.1167C21.8768 34.1167 21.1367 34.3722 20.5724 34.8833C20.0082 35.3944 19.2681 35.65 18.528 35.65C17.7879 35.65 17.0478 35.3944 16.4835 34.8833C15.9193 34.3722 15.1792 34.1167 14.4391 34.1167C13.699 34.1167 12.9589 34.3722 12.3947 34.8833C11.8304 35.3944 11.0903 35.65 10.3502 35.65" stroke="#3C3C3C" stroke-width="2"/>
<path d="M10.3615 30.5154C9.62137 30.5154 8.88128 30.2598 8.31701 29.7487C7.75274 29.2376 7.01266 28.9821 6.27257 28.9821C5.53248 28.9821 4.79239 29.2376 4.22812 29.7487C3.66386 30.2598 2.92377 30.5154 2.18368 30.5154C1.44359 30.5154 0.7035 30.2598 0.139233 29.7487C-0.425033 29.2376 -1.16512 28.9821 -1.90521 28.9821C-2.6453 28.9821 -3.38539 29.2376 -3.94966 29.7487C-4.51392 30.2598 -5.25401 30.5154 -5.9941 30.5154C-6.73419 30.5154 -7.47428 30.2598 -8.03854 29.7487C-8.60281 29.2376 -9.3429 28.9821 -10.083 28.9821C-10.8231 28.9821 -11.5632 29.2376 -12.1274 29.7487C-12.6917 30.2598 -13.4318 30.5154 -14.1719 30.5154M59.4159 30.5297C58.6758 30.5297 57.9357 30.2741 57.3714 29.763C56.8071 29.2519 56.0671 28.9964 55.327 28.9964C54.5869 28.9964 53.8468 29.2519 53.2825 29.763C52.7183 30.2741 51.9782 30.5297 51.2381 30.5297C50.498 30.5297 49.7579 30.2741 49.1936 29.763C48.6294 29.2519 47.8893 28.9964 47.1492 28.9964C46.4091 28.9964 45.669 29.2519 45.1047 29.763C44.5405 30.2741 43.8004 30.5297 43.0603 30.5297C42.3202 30.5297 41.5801 30.2741 41.0159 29.763C40.4516 29.2519 39.7115 28.9964 38.9714 28.9964C38.2313 28.9964 37.4912 29.2519 36.927 29.763C36.3627 30.2741 35.6226 30.5297 34.8825 30.5297M34.8835 30.5389C34.1435 30.5389 33.4034 30.2833 32.8391 29.7722C32.2748 29.2611 31.5347 29.0056 30.7947 29.0056C30.0546 29.0056 29.3145 29.2611 28.7502 29.7722C28.1859 30.2833 27.4459 30.5389 26.7058 30.5389C25.9657 30.5389 25.2256 30.2833 24.6613 29.7722C24.0971 29.2611 23.357 29.0056 22.6169 29.0056C21.8768 29.0056 21.1367 29.2611 20.5724 29.7722C20.0082 30.2833 19.2681 30.5389 18.528 30.5389C17.7879 30.5389 17.0478 30.2833 16.4835 29.7722C15.9193 29.2611 15.1792 29.0056 14.4391 29.0056C13.699 29.0056 12.9589 29.2611 12.3947 29.7722C11.8304 30.2833 11.0903 30.5389 10.3502 30.5389" stroke="#3C3C3C" stroke-width="2"/>
<path d="M10.3615 25.4043C9.62137 25.4043 8.88128 25.1487 8.31701 24.6376C7.75274 24.1265 7.01266 23.871 6.27257 23.871C5.53248 23.871 4.79239 24.1265 4.22812 24.6376C3.66386 25.1487 2.92377 25.4043 2.18368 25.4043C1.44359 25.4043 0.7035 25.1487 0.139233 24.6376C-0.425033 24.1265 -1.16512 23.871 -1.90521 23.871C-2.6453 23.871 -3.38539 24.1265 -3.94966 24.6376C-4.51392 25.1487 -5.25401 25.4043 -5.9941 25.4043C-6.73419 25.4043 -7.47428 25.1487 -8.03854 24.6376C-8.60281 24.1265 -9.3429 23.871 -10.083 23.871C-10.8231 23.871 -11.5632 24.1265 -12.1274 24.6376C-12.6917 25.1487 -13.4318 25.4043 -14.1719 25.4043M59.4159 25.4186C58.6758 25.4186 57.9357 25.1631 57.3714 24.6519C56.8071 24.1408 56.0671 23.8853 55.327 23.8853C54.5869 23.8853 53.8468 24.1408 53.2825 24.6519C52.7183 25.1631 51.9782 25.4186 51.2381 25.4186C50.498 25.4186 49.7579 25.1631 49.1936 24.6519C48.6294 24.1408 47.8893 23.8853 47.1492 23.8853C46.4091 23.8853 45.669 24.1408 45.1047 24.6519C44.5405 25.1631 43.8004 25.4186 43.0603 25.4186C42.3202 25.4186 41.5801 25.1631 41.0159 24.6519C40.4516 24.1408 39.7115 23.8853 38.9714 23.8853C38.2313 23.8853 37.4912 24.1408 36.927 24.6519C36.3627 25.1631 35.6226 25.4186 34.8825 25.4186M34.8835 25.4278C34.1435 25.4278 33.4034 25.1723 32.8391 24.6611C32.2748 24.15 31.5347 23.8945 30.7947 23.8945C30.0546 23.8945 29.3145 24.15 28.7502 24.6611C28.1859 25.1723 27.4459 25.4278 26.7058 25.4278C25.9657 25.4278 25.2256 25.1723 24.6613 24.6611C24.0971 24.15 23.357 23.8945 22.6169 23.8945C21.8768 23.8945 21.1367 24.15 20.5724 24.6611C20.0082 25.1723 19.2681 25.4278 18.528 25.4278C17.7879 25.4278 17.0478 25.1723 16.4835 24.6611C15.9193 24.15 15.1792 23.8945 14.4391 23.8945C13.699 23.8945 12.9589 24.15 12.3947 24.6611C11.8304 25.1723 11.0903 25.4278 10.3502 25.4278" stroke="#3C3C3C" stroke-width="2"/>
</g>
</svg>
