<svg width="46" height="46" viewBox="0 0 46 46" fill="none" xmlns="http://www.w3.org/2000/svg">
<path d="M28.3988 11.2465V9.20204C28.3988 8.07248 27.4839 7.15759 26.3543 7.15759H15.1099C13.9803 7.15759 13.0654 8.07248 13.0654 9.20204V36.802" stroke="#3C3C3C" stroke-width="2"/>
<path d="M34.5323 11.2465H22.2656V15.3353H34.5323V11.2465Z" stroke="#3C3C3C" stroke-width="2" stroke-linejoin="round"/>
<path d="M19.1992 15.3353H37.5992" stroke="#3C3C3C" stroke-width="2" stroke-linejoin="round"/>
<path d="M28.399 18.402C27.8347 18.402 27.3767 18.8599 27.3767 19.4242C27.3767 19.9885 27.8347 20.4464 28.399 20.4464C28.9632 20.4464 29.4212 19.9885 29.4212 19.4242C29.4212 18.8599 28.9632 18.402 28.399 18.402ZM23.2878 18.402C22.7236 18.402 22.2656 18.8599 22.2656 19.4242C22.2656 19.9885 22.7236 20.4464 23.2878 20.4464C23.8521 20.4464 24.3101 19.9885 24.3101 19.4242C24.3101 18.8599 23.8521 18.402 23.2878 18.402ZM33.5101 18.402C32.9458 18.402 32.4878 18.8599 32.4878 19.4242C32.4878 19.9885 32.9458 20.4464 33.5101 20.4464C34.0743 20.4464 34.5323 19.9885 34.5323 19.4242C34.5323 18.8599 34.0743 18.402 33.5101 18.402ZM28.399 22.4909C27.8347 22.4909 27.3767 22.9488 27.3767 23.5131C27.3767 24.0774 27.8347 24.5353 28.399 24.5353C28.9632 24.5353 29.4212 24.0774 29.4212 23.5131C29.4212 22.9488 28.9632 22.4909 28.399 22.4909ZM33.5101 22.4909C32.9458 22.4909 32.4878 22.9488 32.4878 23.5131C32.4878 24.0774 32.9458 24.5353 33.5101 24.5353C34.0743 24.5353 34.5323 24.0774 34.5323 23.5131C34.5323 22.9488 34.0743 22.4909 33.5101 22.4909ZM23.2878 22.4909C22.7236 22.4909 22.2656 22.9488 22.2656 23.5131C22.2656 24.0774 22.7236 24.5353 23.2878 24.5353C23.8521 24.5353 24.3101 24.0774 24.3101 23.5131C24.3101 22.9488 23.8521 22.4909 23.2878 22.4909ZM28.399 26.5798C27.8347 26.5798 27.3767 27.0377 27.3767 27.602C27.3767 28.1662 27.8347 28.6242 28.399 28.6242C28.9632 28.6242 29.4212 28.1662 29.4212 27.602C29.4212 27.0377 28.9632 26.5798 28.399 26.5798ZM33.5101 26.5798C32.9458 26.5798 32.4878 27.0377 32.4878 27.602C32.4878 28.1662 32.9458 28.6242 33.5101 28.6242C34.0743 28.6242 34.5323 28.1662 34.5323 27.602C34.5323 27.0377 34.0743 26.5798 33.5101 26.5798ZM23.2878 26.5798C22.7236 26.5798 22.2656 27.0377 22.2656 27.602C22.2656 28.1662 22.7236 28.6242 23.2878 28.6242C23.8521 28.6242 24.3101 28.1662 24.3101 27.602C24.3101 27.0377 23.8521 26.5798 23.2878 26.5798ZM28.399 30.6686C27.8347 30.6686 27.3767 31.1266 27.3767 31.6909C27.3767 32.2551 27.8347 32.7131 28.399 32.7131C28.9632 32.7131 29.4212 32.2551 29.4212 31.6909C29.4212 31.1266 28.9632 30.6686 28.399 30.6686ZM33.5101 30.6686C32.9458 30.6686 32.4878 31.1266 32.4878 31.6909C32.4878 32.2551 32.9458 32.7131 33.5101 32.7131C34.0743 32.7131 34.5323 32.2551 34.5323 31.6909C34.5323 31.1266 34.0743 30.6686 33.5101 30.6686ZM23.2878 30.6686C22.7236 30.6686 22.2656 31.1266 22.2656 31.6909C22.2656 32.2551 22.7236 32.7131 23.2878 32.7131C23.8521 32.7131 24.3101 32.2551 24.3101 31.6909C24.3101 31.1266 23.8521 30.6686 23.2878 30.6686ZM28.399 34.7575C27.8347 34.7575 27.3767 35.2155 27.3767 35.7798C27.3767 36.344 27.8347 36.802 28.399 36.802C28.9632 36.802 29.4212 36.344 29.4212 35.7798C29.4212 35.2155 28.9632 34.7575 28.399 34.7575ZM33.5101 34.7575C32.9458 34.7575 32.4878 35.2155 32.4878 35.7798C32.4878 36.344 32.9458 36.802 33.5101 36.802C34.0743 36.802 34.5323 36.344 34.5323 35.7798C34.5323 35.2155 34.0743 34.7575 33.5101 34.7575ZM23.2878 34.7575C22.7236 34.7575 22.2656 35.2155 22.2656 35.7798C22.2656 36.344 22.7236 36.802 23.2878 36.802C23.8521 36.802 24.3101 36.344 24.3101 35.7798C24.3101 35.2155 23.8521 34.7575 23.2878 34.7575Z" fill="#3C3C3C"/>
<path d="M33.5103 18.402C32.946 18.402 32.4881 18.8599 32.4881 19.4242C32.4881 19.9885 32.946 20.4464 33.5103 20.4464C34.0746 20.4464 34.5325 19.9885 34.5325 19.4242C34.5325 18.8599 34.0746 18.402 33.5103 18.402ZM28.3992 18.402C27.8349 18.402 27.377 18.8599 27.377 19.4242C27.377 19.9885 27.8349 20.4464 28.3992 20.4464C28.9634 20.4464 29.4214 19.9885 29.4214 19.4242C29.4214 18.8599 28.9634 18.402 28.3992 18.402ZM33.5103 22.4909C32.946 22.4909 32.4881 22.9488 32.4881 23.5131C32.4881 24.0774 32.946 24.5353 33.5103 24.5353C34.0746 24.5353 34.5325 24.0774 34.5325 23.5131C34.5325 22.9488 34.0746 22.4909 33.5103 22.4909ZM28.3992 22.4909C27.8349 22.4909 27.377 22.9488 27.377 23.5131C27.377 24.0774 27.8349 24.5353 28.3992 24.5353C28.9634 24.5353 29.4214 24.0774 29.4214 23.5131C29.4214 22.9488 28.9634 22.4909 28.3992 22.4909ZM33.5103 26.5798C32.946 26.5798 32.4881 27.0377 32.4881 27.602C32.4881 28.1662 32.946 28.6242 33.5103 28.6242C34.0746 28.6242 34.5325 28.1662 34.5325 27.602C34.5325 27.0377 34.0746 26.5798 33.5103 26.5798ZM28.3992 26.5798C27.8349 26.5798 27.377 27.0377 27.377 27.602C27.377 28.1662 27.8349 28.6242 28.3992 28.6242C28.9634 28.6242 29.4214 28.1662 29.4214 27.602C29.4214 27.0377 28.9634 26.5798 28.3992 26.5798ZM33.5103 30.6686C32.946 30.6686 32.4881 31.1266 32.4881 31.6909C32.4881 32.2551 32.946 32.7131 33.5103 32.7131C34.0746 32.7131 34.5325 32.2551 34.5325 31.6909C34.5325 31.1266 34.0746 30.6686 33.5103 30.6686ZM28.3992 30.6686C27.8349 30.6686 27.377 31.1266 27.377 31.6909C27.377 32.2551 27.8349 32.7131 28.3992 32.7131C28.9634 32.7131 29.4214 32.2551 29.4214 31.6909C29.4214 31.1266 28.9634 30.6686 28.3992 30.6686ZM33.5103 34.7575C32.946 34.7575 32.4881 35.2155 32.4881 35.7798C32.4881 36.344 32.946 36.802 33.5103 36.802C34.0746 36.802 34.5325 36.344 34.5325 35.7798C34.5325 35.2155 34.0746 34.7575 33.5103 34.7575ZM28.3992 34.7575C27.8349 34.7575 27.377 35.2155 27.377 35.7798C27.377 36.344 27.8349 36.802 28.3992 36.802C28.9634 36.802 29.4214 36.344 29.4214 35.7798C29.4214 35.2155 28.9634 34.7575 28.3992 34.7575Z" fill="#3C3C3C"/>
</svg>
