<svg width="46" height="46" viewBox="0 0 46 46" fill="none" xmlns="http://www.w3.org/2000/svg">
<path d="M20.3032 32.222H26.366V34.243H20.3032V32.222ZM16.2613 34.243V36.2639H30.4079V34.243H28.3869V32.222L29.4809 32.218L29.7005 32.2126C32.3897 32.0981 32.2429 30.9919 29.5254 30.9919L16.8447 31.0014C14.1555 31.1159 14.301 32.222 17.0185 32.222H18.2823V34.243H16.2613Z" fill="#3C3C3C"/>
<path d="M13.2301 12.0126H33.4394L33.6172 12.018C35.2084 12.1096 36.4708 13.43 36.4708 15.044V27.1696L36.4654 27.3475C36.3738 28.9386 35.0535 30.201 33.4394 30.201H13.2301L13.0522 30.1956C11.4611 30.104 10.1987 28.7837 10.1987 27.1696V15.044L10.2041 14.8662C10.2957 13.275 11.616 12.0126 13.2301 12.0126ZM28.3871 32.222H33.4394L33.659 32.2179C36.3482 32.1034 38.4917 29.8871 38.4917 27.1696V15.044L38.4877 14.8244C38.3732 12.1352 36.1569 9.9917 33.4394 9.9917H13.2301L13.0105 9.99574C10.3213 10.1103 8.17773 12.3266 8.17773 15.044V27.1696L8.18178 27.3892C8.2963 30.0784 10.5126 32.222 13.2301 32.222H18.2824H28.3871Z" fill="#3C3C3C"/>
</svg>
