<svg width="46" height="46" viewBox="0 0 46 46" fill="none" xmlns="http://www.w3.org/2000/svg">
<path d="M20.8407 30.8171C20.8407 29.6792 21.7636 28.7562 22.9016 28.7562C24.0395 28.7562 24.9624 29.6792 24.9624 30.8171C24.9624 31.955 24.0395 32.8765 22.9016 32.8765C21.7636 32.8765 20.8407 31.955 20.8407 30.8171ZM27.0219 30.8171C27.0219 28.5412 25.1774 26.6968 22.9016 26.6968C20.6257 26.6968 18.7812 28.5412 18.7812 30.8171C18.7812 33.093 20.6257 34.9374 22.9016 34.9374C25.1774 34.9374 27.0219 33.093 27.0219 30.8171Z" fill="#3C3C3C"/>
<path d="M31.1864 26.6524C29.6615 23.6227 26.5243 21.546 22.9013 21.546C19.2783 21.546 16.1411 23.6241 14.6162 26.6524L16.1755 28.2116C17.2203 25.5173 19.8372 23.6055 22.9013 23.6055C25.9654 23.6055 28.5823 25.5173 29.6271 28.2116L31.1864 26.6524Z" fill="#3C3C3C"/>
<path d="M34.9496 22.8889C32.3699 18.9764 27.9372 16.3953 22.9011 16.3953C17.865 16.3953 13.4322 18.9778 10.8525 22.8889L12.3459 24.3808C14.5171 20.828 18.4325 18.4561 22.9011 18.4561C27.3711 18.4561 31.2865 20.828 33.4577 24.3822L34.9496 22.8889Z" fill="#3C3C3C"/>
<path d="M38.6474 19.1914C35.0832 14.3717 29.3563 11.2445 22.9014 11.2445C16.4464 11.2445 10.7195 14.3717 7.15527 19.1914L8.63142 20.6646C11.8059 16.2104 17.014 13.3054 22.9014 13.3054C28.7888 13.3054 33.9983 16.2104 37.1727 20.6661L38.6474 19.1914Z" fill="#3C3C3C"/>
</svg>
