<svg width="45" height="45" viewBox="0 0 45 45" fill="none" xmlns="http://www.w3.org/2000/svg">
<path d="M17.375 19.675V25.762" stroke="#3C3C3C" stroke-width="2"/>
<path d="M15.377 29.7561H19.375V25.7621H15.377V29.7561Z" stroke="#3C3C3C" stroke-width="2" stroke-linecap="round" stroke-linejoin="round"/>
<path d="M28 21.499V21.999H28.5L32.5 22C32.752 22 32.961 22.186 32.995 22.429L33 22.514V31.5C33 31.752 32.813 31.961 32.571 31.995L32.485 32H28.5H28V32.5C28 33.827 27.306 35.068 26.102 35.922C25.201 36.561 24.07 36.942 22.862 36.993L22.571 37H15.5C13.082 37 11.109 35.092 11.004 32.7L11 32.494V19.5C11 19.248 11.187 19.039 11.429 19.005L11.514 19H27.5C27.752 19 27.961 19.186 27.995 19.429L28 19.514V21.499ZM17 20.499V19.999H16.5L12.5 20H12V20.5V32.5C12 34.295 13.351 35.774 15.092 35.976L15.099 35.977L15.107 35.978L15.28 35.993L15.295 35.994H15.309L15.485 35.999L15.493 36H15.5H22.577C23.672 36 24.712 35.682 25.523 35.107C26.373 34.504 26.918 33.656 26.991 32.716L26.992 32.706L26.993 32.696L26.999 32.519L27 32.509V32.5V20.5V20H26.5L18.5 19.999H18V20.499M32 23.5V23H31.5H28.5H28V23.5V30.5V31H28.5H31.5H32V30.5V23.5Z" fill="#3C3C3C"/>
<path d="M17 20.499V19.999H16.5L12.5 20H12V20.5V32.5C12 34.295 13.351 35.774 15.092 35.976L15.099 35.977L15.107 35.978L15.28 35.993L15.295 35.994H15.309L15.485 35.999L15.493 36H15.5H22.577C23.672 36 24.712 35.682 25.523 35.107C26.373 34.504 26.918 33.656 26.991 32.716L26.992 32.706L26.993 32.696L26.999 32.519L27 32.509V32.5V20.5V20H26.5L18.5 19.999H18V20.499M28 21.499V21.999H28.5L32.5 22C32.752 22 32.961 22.186 32.995 22.429L33 22.514V31.5C33 31.752 32.813 31.961 32.571 31.995L32.485 32H28.5H28V32.5C28 33.827 27.306 35.068 26.102 35.922C25.201 36.561 24.07 36.942 22.862 36.993L22.571 37H15.5C13.082 37 11.109 35.092 11.004 32.7L11 32.494V19.5C11 19.248 11.187 19.039 11.429 19.005L11.514 19H27.5C27.752 19 27.961 19.186 27.995 19.429L28 19.514V21.499ZM32 23.5V23H31.5H28.5H28V23.5V30.5V31H28.5H31.5H32V30.5V23.5Z" stroke="#3C3C3C"/>
<mask id="mask0_1021_48477" style="mask-type:alpha" maskUnits="userSpaceOnUse" x="13" y="6" width="18" height="13">
<path d="M18.3749 6.75C18.3749 6.75 18.3749 10.625 16.1249 12.75C13.9959 14.761 14.6249 17.875 14.6249 17.875" stroke="#FF0000" stroke-width="2.8"/>
<path d="M23.8836 6.75C23.8836 6.75 23.8836 10.625 21.6336 12.75C19.5046 14.761 20.1336 17.875 20.1336 17.875" stroke="#FF0000" stroke-width="2.8"/>
<path d="M29.1502 6.75C29.1502 6.75 29.1502 10.625 26.9002 12.75C24.7712 14.761 25.4002 17.875 25.4002 17.875" stroke="#FF0000" stroke-width="2.8"/>
</mask>
<g mask="url(#mask0_1021_48477)">
<path d="M21.7248 13.568L21.7208 13.574L21.3758 14.127L21.3728 14.132C20.7098 15.227 20.3178 16.069 20.1328 16.999L19.1108 17C19.2918 15.907 19.7128 14.944 20.5098 13.628L20.8758 13.038L21.0768 12.725C21.0768 12.725 21.0768 12.725 21.0778 12.725C21.7798 11.64 22.2628 10.807 22.5668 10.007C22.8198 9.343 22.9438 8.715 22.9808 8L23.9828 8.001C23.9138 9.573 23.4988 10.69 22.4818 12.37L22.1148 12.959L21.7248 13.568ZM26.7248 13.568L26.7208 13.574L26.3758 14.127L26.3728 14.132C25.7098 15.227 25.3188 16.069 25.1328 16.999L24.1108 17C24.2918 15.907 24.7128 14.944 25.5098 13.628L25.8758 13.038L26.0768 12.725C26.0768 12.725 26.0768 12.725 26.0778 12.725C26.7798 11.64 27.2628 10.807 27.5668 10.007C27.8198 9.343 27.9438 8.715 27.9808 8L28.9828 8.001C28.9138 9.573 28.4988 10.69 27.4818 12.37L27.1148 12.959L26.7248 13.568ZM17.1568 11.872C17.1568 11.872 17.1568 11.873 17.1558 11.873L16.9148 12.245V12.246C16.2148 13.318 15.7308 14.15 15.4268 14.956C15.1728 15.627 15.0478 16.268 15.0108 16.999L14.0098 17C14.0448 16.18 14.1708 15.493 14.4098 14.807C14.6998 13.978 15.1618 13.127 15.8688 12.021L16.1138 11.643C16.1148 11.643 16.1148 11.642 16.1148 11.642C17.0868 10.152 17.6308 9.143 17.8608 8H18.8828C18.6768 9.229 18.1658 10.295 17.1568 11.872Z" fill="#3C3C3C"/>
<path d="M21.7248 13.568L21.7208 13.574L21.3758 14.127L21.3728 14.132C20.7098 15.227 20.3178 16.069 20.1328 16.999L19.1108 17C19.2918 15.907 19.7128 14.944 20.5098 13.628L20.8758 13.038L21.0768 12.725C21.0768 12.725 21.0768 12.725 21.0778 12.725C21.7798 11.64 22.2628 10.807 22.5668 10.007C22.8198 9.343 22.9438 8.715 22.9808 8L23.9828 8.001C23.9138 9.573 23.4988 10.69 22.4818 12.37L22.1148 12.959L21.7248 13.568ZM26.7248 13.568L26.7208 13.574L26.3758 14.127L26.3728 14.132C25.7098 15.227 25.3188 16.069 25.1328 16.999L24.1108 17C24.2918 15.907 24.7128 14.944 25.5098 13.628L25.8758 13.038L26.0768 12.725C26.0768 12.725 26.0768 12.725 26.0778 12.725C26.7798 11.64 27.2628 10.807 27.5668 10.007C27.8198 9.343 27.9438 8.715 27.9808 8L28.9828 8.001C28.9138 9.573 28.4988 10.69 27.4818 12.37L27.1148 12.959L26.7248 13.568ZM17.1568 11.872C17.1568 11.872 17.1568 11.873 17.1558 11.873L16.9148 12.245V12.246C16.2148 13.318 15.7308 14.15 15.4268 14.956C15.1728 15.627 15.0478 16.268 15.0108 16.999L14.0098 17C14.0448 16.18 14.1708 15.493 14.4098 14.807C14.6998 13.978 15.1618 13.127 15.8688 12.021L16.1138 11.643C16.1148 11.643 16.1148 11.642 16.1148 11.642C17.0868 10.152 17.6308 9.143 17.8608 8H18.8828C18.6768 9.229 18.1658 10.295 17.1568 11.872Z" stroke="#3C3C3C"/>
</g>
</svg>
