<svg width="45" height="45" viewBox="0 0 45 45" fill="none" xmlns="http://www.w3.org/2000/svg">
<path d="M33.5 20.757V13.672H34.5V22.757V22.964L34.646 23.111L37 25.464L36.293 26.172L35.353 25.232L34.5 24.377V25.585V26.172C34.5 26.812 34.26 27.395 33.864 27.838L33.565 28.171L33.863 28.505C34.228 28.912 34.46 29.438 34.495 30.017L34.5 30.179V31.172C34.5 31.812 34.26 32.395 33.864 32.838L33.565 33.171L33.863 33.505C34.228 33.912 34.46 34.438 34.495 35.017L34.5 35.179V36.172C34.5 37.501 33.463 38.588 32.154 38.667L31.993 38.672H12C10.671 38.672 9.584 37.635 9.505 36.326L9.5 36.164V35.172C9.5 34.531 9.74 33.948 10.136 33.505L10.435 33.172L10.136 32.838C9.772 32.431 9.54 31.905 9.505 31.326L9.5 31.164V30.172C9.5 29.531 9.74 28.948 10.136 28.505L10.435 28.172L10.136 27.838C9.782 27.442 9.552 26.933 9.508 26.371L9.5 26.162V25.585V24.378L8.646 25.232L7.707 26.172L7 25.465L20.232 12.232C21.167 11.297 22.66 11.258 23.641 12.114L23.773 12.238L32.646 21.111L33.5 21.964V20.757ZM17.5 34.171V33.671H17L12 33.672C11.23 33.672 10.597 34.251 10.51 34.997L10.508 35.012L10.507 35.026L10.501 35.143L10.5 35.157V35.172V36.172C10.5 36.941 11.079 37.575 11.826 37.662L11.84 37.663L11.854 37.664L11.971 37.671L11.985 37.672H12H17H17.5V37.172V34.171ZM25.5 28.172V27.672H25H19H18.5V28.172V37.172V37.672H19H25H25.5V37.172V28.172ZM32.029 33.672H32.014H32L27 33.671H26.5V34.171V37.172V37.672H27H32C32.769 37.672 33.403 37.092 33.49 36.346L33.491 36.332L33.492 36.317L33.499 36.2L33.5 36.186V36.172V35.172C33.5 34.402 32.921 33.768 32.174 33.682L32.16 33.68L32.145 33.679L32.029 33.672ZM32.029 28.672H32.014H32L27 28.671H26.5V29.171V32.171V32.671H27L32 32.672C32.769 32.672 33.403 32.092 33.49 31.346L33.491 31.332L33.492 31.317L33.499 31.2L33.5 31.186V31.172V30.172C33.5 29.402 32.921 28.768 32.174 28.682L32.16 28.68L32.145 28.679L32.029 28.672ZM17.5 29.171V28.671H17L12 28.672C11.23 28.672 10.597 29.251 10.51 29.997L10.508 30.012L10.507 30.026L10.501 30.143L10.5 30.157V30.172V31.172C10.5 31.941 11.079 32.575 11.826 32.662L11.84 32.663L11.854 32.664L11.971 32.671L11.985 32.672H12L17 32.671H17.5V32.171V29.171ZM10.51 24.997L10.508 25.012L10.507 25.026L10.501 25.143L10.5 25.157V25.172V26.172C10.5 26.941 11.079 27.575 11.826 27.662L11.84 27.663L11.854 27.664L11.971 27.671L11.985 27.672H12L17.268 27.671H17.556L17.7 27.421C17.942 27.005 18.376 26.716 18.879 26.676L19.009 26.672H25C25.554 26.672 26.039 26.972 26.299 27.422L26.444 27.671H26.732L32 27.672C32.769 27.672 33.403 27.092 33.49 26.346L33.491 26.332L33.492 26.317L33.499 26.2L33.5 26.186V26.172V25.172C33.5 24.343 32.828 23.672 32 23.672H12C11.23 23.672 10.597 24.251 10.51 24.997ZM28.939 18.817L28.793 18.671H28.586H15.414H15.207L15.06 18.817L12.06 21.817L11.207 22.671H12.414H31.586H32.793L31.939 21.817L28.939 18.817ZM21.08 12.815L21.068 12.825L21.056 12.835L20.962 12.918L20.95 12.928L20.939 12.939L17.06 16.817L16.206 17.671H17.414H26.586H27.793L26.939 16.817L23.06 12.939C22.519 12.398 21.669 12.357 21.08 12.815Z" fill="#3C3C3C"/>
<path d="M33.5 20.757V13.672H34.5V22.757V22.964L34.646 23.111L37 25.464L36.293 26.172L35.353 25.232L34.5 24.377V25.585V26.172C34.5 26.812 34.26 27.395 33.864 27.838L33.565 28.171L33.863 28.505C34.228 28.912 34.46 29.438 34.495 30.017L34.5 30.179V31.172C34.5 31.812 34.26 32.395 33.864 32.838L33.565 33.171L33.863 33.505C34.228 33.912 34.46 34.438 34.495 35.017L34.5 35.179V36.172C34.5 37.501 33.463 38.588 32.154 38.667L31.993 38.672H12C10.671 38.672 9.584 37.635 9.505 36.326L9.5 36.164V35.172C9.5 34.531 9.74 33.948 10.136 33.505L10.435 33.172L10.136 32.838C9.772 32.431 9.54 31.905 9.505 31.326L9.5 31.164V30.172C9.5 29.531 9.74 28.948 10.136 28.505L10.435 28.172L10.136 27.838C9.782 27.442 9.552 26.933 9.508 26.371L9.5 26.162V25.585V24.378L8.646 25.232L7.707 26.172L7 25.465L20.232 12.232C21.167 11.297 22.66 11.258 23.641 12.114L23.773 12.238L32.646 21.111L33.5 21.964V20.757ZM17.5 34.171V33.671H17L12 33.672C11.23 33.672 10.597 34.251 10.51 34.997L10.508 35.012L10.507 35.026L10.501 35.143L10.5 35.157V35.172V36.172C10.5 36.941 11.079 37.575 11.826 37.662L11.84 37.663L11.854 37.664L11.971 37.671L11.985 37.672H12H17H17.5V37.172V34.171ZM25.5 28.172V27.672H25H19H18.5V28.172V37.172V37.672H19H25H25.5V37.172V28.172ZM32.029 33.672H32.014H32L27 33.671H26.5V34.171V37.172V37.672H27H32C32.769 37.672 33.403 37.092 33.49 36.346L33.491 36.332L33.492 36.317L33.499 36.2L33.5 36.186V36.172V35.172C33.5 34.402 32.921 33.768 32.174 33.682L32.16 33.68L32.145 33.679L32.029 33.672ZM32.029 28.672H32.014H32L27 28.671H26.5V29.171V32.171V32.671H27L32 32.672C32.769 32.672 33.403 32.092 33.49 31.346L33.491 31.332L33.492 31.317L33.499 31.2L33.5 31.186V31.172V30.172C33.5 29.402 32.921 28.768 32.174 28.682L32.16 28.68L32.145 28.679L32.029 28.672ZM17.5 29.171V28.671H17L12 28.672C11.23 28.672 10.597 29.251 10.51 29.997L10.508 30.012L10.507 30.026L10.501 30.143L10.5 30.157V30.172V31.172C10.5 31.941 11.079 32.575 11.826 32.662L11.84 32.663L11.854 32.664L11.971 32.671L11.985 32.672H12L17 32.671H17.5V32.171V29.171ZM10.51 24.997L10.508 25.012L10.507 25.026L10.501 25.143L10.5 25.157V25.172V26.172C10.5 26.941 11.079 27.575 11.826 27.662L11.84 27.663L11.854 27.664L11.971 27.671L11.985 27.672H12L17.268 27.671H17.556L17.7 27.421C17.942 27.005 18.376 26.716 18.879 26.676L19.009 26.672H25C25.554 26.672 26.039 26.972 26.299 27.422L26.444 27.671H26.732L32 27.672C32.769 27.672 33.403 27.092 33.49 26.346L33.491 26.332L33.492 26.317L33.499 26.2L33.5 26.186V26.172V25.172C33.5 24.343 32.828 23.672 32 23.672H12C11.23 23.672 10.597 24.251 10.51 24.997ZM28.939 18.817L28.793 18.671H28.586H15.414H15.207L15.06 18.817L12.06 21.817L11.207 22.671H12.414H31.586H32.793L31.939 21.817L28.939 18.817ZM21.08 12.815L21.068 12.825L21.056 12.835L20.962 12.918L20.95 12.928L20.939 12.939L17.06 16.817L16.206 17.671H17.414H26.586H27.793L26.939 16.817L23.06 12.939C22.519 12.398 21.669 12.357 21.08 12.815Z" stroke="#3C3C3C"/>
</svg>
