<svg width="45" height="45" viewBox="0 0 45 45" fill="none" xmlns="http://www.w3.org/2000/svg">
<path d="M34 8.5V15.286C35.236 17.336 35.922 19.67 35.993 22.062L36 22.5V34.5C36 35.005 35.81 35.491 35.467 35.861C35.123 36.23 34.653 36.457 34.15 36.495L34 36.5H10C9.495 36.5 9.009 36.31 8.639 35.966C8.269 35.623 8.043 35.153 8.005 34.65L8 34.5V22.5C8 14.768 14.268 8.5 22 8.5C25.918 8.5 29.46 10.11 32 12.703V8.5H34ZM22 10.5C15.475 10.5 10.166 15.709 10.004 22.195L10 22.5V34.5H16L17 24.5H15L14.5 21.5H29.5L29 24.5H27L28 34.5H34V22.5C34 15.873 28.627 10.5 22 10.5ZM24.5 25.5H19.5L19 34.5H25L24.5 25.5Z" fill="#3C3C3C"/>
</svg>
