<svg width="45" height="45" viewBox="0 0 45 45" fill="none" xmlns="http://www.w3.org/2000/svg">
<path d="M27 36C27 36.5523 26.5523 37 26 37H18C17.4477 37 17 36.5523 17 36C17 35.4477 17.4477 35 18 35H26C26.5523 35 27 35.4477 27 36ZM25 32C25 32.5523 24.5523 33 24 33H20C19.4477 33 19 32.5523 19 32C19 31.4477 19.4477 31 20 31H24C24.5523 31 25 31.4477 25 32ZM34 9.5L34.7031 10.5547C34.8886 10.8329 35.2008 11 35.5352 11H36C36.5523 11 37 11.4477 37 12C37 12.5523 36.5523 13 36 13C35.4477 13 35 13.4477 35 14V28C35 28.513 34.614 28.936 34.117 28.993L34 29H10C9.487 29 9.064 28.614 9.007 28.117L9 28V14C9 13.4477 8.55228 13 8 13C7.44772 13 7 12.5523 7 12V11.8817C7 11.3778 7.37487 10.9527 7.87476 10.8896L18.883 9.5L32.3981 8.06396C32.7681 8.02464 33.1294 8.19404 33.3358 8.50366L34 9.5ZM33 12.095C33 11.507 32.4951 11.0459 31.9095 11.0991L11.9095 12.9173C11.3944 12.9641 11 13.396 11 13.9132V26C11 26.5523 11.4477 27 12 27H17C17.5523 27 18 26.5523 18 26V19C18 18.487 18.386 18.064 18.883 18.007L19 18H25C25.513 18 25.936 18.386 25.993 18.883L26 19V26C26 26.5523 26.4477 27 27 27H32C32.5523 27 33 26.5523 33 26V12.095ZM24 21C24 20.4477 23.5523 20 23 20H21C20.4477 20 20 20.4477 20 21V26C20 26.5523 20.4477 27 21 27H23C23.5523 27 24 26.5523 24 26V21ZM30 15C30.552 15 31 15.448 31 16C31 16.552 30.552 17 30 17C29.448 17 29 16.552 29 16C29 15.448 29.448 15 30 15Z" fill="#3C3C3C"/>
<circle cx="14" cy="16" r="1" fill="#3B3B3B"/>
</svg>
