<svg width="50" height="50" viewBox="0 0 50 50" fill="none" xmlns="http://www.w3.org/2000/svg">
<path d="M4.16797 45.832H45.8346" stroke="black" stroke-width="2" stroke-miterlimit="10" stroke-linecap="round" stroke-linejoin="round"/>
<path d="M6.14453 45.832L6.2487 20.7694C6.2487 19.4986 6.85286 18.2904 7.85286 17.4987L22.4362 6.14453C23.9362 4.97786 26.0404 4.97786 27.5612 6.14453L42.1445 17.4779C43.1654 18.2695 43.7487 19.4778 43.7487 20.7694V45.832" stroke="black" stroke-width="2" stroke-miterlimit="10" stroke-linejoin="round"/>
<path d="M27.0846 35.418H22.918C21.1888 35.418 19.793 36.8138 19.793 38.543V45.8346H30.2096V38.543C30.2096 36.8138 28.8138 35.418 27.0846 35.418Z" stroke="black" stroke-width="2" stroke-miterlimit="10" stroke-linejoin="round"/>
<path d="M19.793 28.6471H15.6263C14.4805 28.6471 13.543 27.7096 13.543 26.5638V23.4388C13.543 22.293 14.4805 21.3555 15.6263 21.3555H19.793C20.9388 21.3555 21.8763 22.293 21.8763 23.4388V26.5638C21.8763 27.7096 20.9388 28.6471 19.793 28.6471Z" stroke="black" stroke-width="2" stroke-miterlimit="10" stroke-linejoin="round"/>
<path d="M34.375 28.6471H30.2083C29.0625 28.6471 28.125 27.7096 28.125 26.5638V23.4388C28.125 22.293 29.0625 21.3555 30.2083 21.3555H34.375C35.5208 21.3555 36.4583 22.293 36.4583 23.4388V26.5638C36.4583 27.7096 35.5208 28.6471 34.375 28.6471Z" stroke="black" stroke-width="2" stroke-miterlimit="10" stroke-linejoin="round"/>
<path d="M39.5846 14.582L39.5221 8.33203H30.3555" stroke="black" stroke-width="2" stroke-miterlimit="10" stroke-linecap="round" stroke-linejoin="round"/>
</svg>
