<svg width="45" height="45" viewBox="0 0 45 45" fill="none" xmlns="http://www.w3.org/2000/svg">
<path d="M22.787 7.91602C23.219 7.93302 23.645 8.08902 23.994 8.38302L24.121 8.50002L30.707 15.086V11.5H32.707V17.086L36.414 20.793L35 22.207L32.707 19.914V28.5H35.707V29.5C35.707 31.298 35.11 33 34.048 34.379L34.319 34.587C34.653 34.82 35.071 34.961 35.515 34.993L35.707 35V37L35.449 36.993C34.602 36.952 33.784 36.667 33.096 36.172L32.762 35.912C32.352 35.637 31.868 35.494 31.374 35.5C30.88 35.494 30.396 35.637 29.986 35.912L29.651 36.172C28.912 36.714 27.989 37 27.041 37C26.091 37 25.169 36.714 24.43 36.172L24.095 35.912C23.685 35.637 23.201 35.494 22.707 35.5C22.213 35.494 21.729 35.637 21.319 35.912L20.985 36.172C20.245 36.714 19.322 37 18.374 37C17.425 37 16.502 36.714 15.764 36.172L15.428 35.912C15.018 35.637 14.534 35.494 14.04 35.5C13.546 35.494 13.062 35.637 12.652 35.912L12.318 36.172C11.629 36.667 10.812 36.952 9.965 36.992L9.707 37V35L9.899 34.993C10.327 34.967 10.74 34.827 11.095 34.588L11.232 34.483L11.366 34.378C10.405 33.13 9.834 31.625 9.726 30.053L9.711 29.758L9.69 28.5H12.707V19.914L10.414 22.207L9 20.793L21.293 8.50002C21.663 8.13002 22.142 7.93502 22.626 7.91602H22.788H22.787ZM33.623 30.5H11.79L11.797 30.54C11.995 31.67 12.513 32.719 13.291 33.562C13.539 33.52 13.79 33.5 14.041 33.5C14.989 33.5 15.912 33.786 16.651 34.329L16.986 34.588C17.367 34.853 17.858 35 18.374 35C18.889 35 19.38 34.853 19.762 34.587L20.096 34.328C20.837 33.786 21.759 33.5 22.707 33.5C23.656 33.5 24.579 33.786 25.318 34.328L25.653 34.588C26.033 34.853 26.525 35 27.041 35C27.556 35 28.047 34.853 28.428 34.587L28.763 34.328C29.503 33.786 30.425 33.5 31.373 33.5C31.626 33.5 31.878 33.52 32.123 33.56C32.879 32.741 33.391 31.727 33.6 30.632L33.622 30.5H33.623ZM22.707 9.91502L14.707 17.915V28.5H18.707V20.5C18.707 19.995 18.897 19.509 19.24 19.139C19.584 18.769 20.054 18.543 20.557 18.505L20.707 18.5H24.707C25.212 18.5 25.697 18.69 26.068 19.033C26.437 19.377 26.664 19.847 26.702 20.35L26.707 20.5V28.5H30.707V17.914L22.707 9.91502ZM24.707 20.5H20.707V28.5H24.707V20.5Z" fill="#3C3C3C"/>
</svg>
