<svg width="32" height="32" viewBox="0 0 32 32" fill="none" xmlns="http://www.w3.org/2000/svg">
<path d="M28.8796 13.9197L27.5729 19.493C26.4529 24.3064 24.2396 26.253 20.0796 25.853C19.4129 25.7997 18.6929 25.6797 17.9196 25.493L15.6796 24.9597C10.1196 23.6397 8.39959 20.893 9.70626 15.3197L11.0129 9.73302C11.2796 8.59969 11.5996 7.61302 11.9996 6.79969C13.5596 3.57302 16.2129 2.70635 20.6663 3.75969L22.8929 4.27969C28.4796 5.58635 30.1863 8.34635 28.8796 13.9197Z" stroke="#312D2A" stroke-width="1.5" stroke-linecap="round" stroke-linejoin="round"/>
<path opacity="0.4" d="M20.0805 25.8531C19.2538 26.4131 18.2138 26.8798 16.9471 27.2931L14.8405 27.9865C9.54712 29.6931 6.76045 28.2665 5.04045 22.9731L3.33379 17.7065C1.62712 12.4131 3.04045 9.61314 8.33379 7.90647L10.4405 7.21314C10.9871 7.0398 11.5071 6.89314 12.0005 6.7998C11.6005 7.61314 11.2805 8.59981 11.0138 9.73314L9.70712 15.3198C8.40046 20.8931 10.1205 23.6398 15.6805 24.9598L17.9205 25.4931C18.6938 25.6798 19.4138 25.7998 20.0805 25.8531Z" stroke="#312D2A" stroke-width="1.5" stroke-linecap="round" stroke-linejoin="round"/>
<path opacity="0.4" d="M16.8535 11.373L23.3202 13.013" stroke="#312D2A" stroke-width="1.5" stroke-linecap="round" stroke-linejoin="round"/>
<path opacity="0.4" d="M15.5469 16.5332L19.4135 17.5199" stroke="#312D2A" stroke-width="1.5" stroke-linecap="round" stroke-linejoin="round"/>
</svg>
