<svg width="90" height="79" viewBox="0 0 90 79" fill="none" xmlns="http://www.w3.org/2000/svg">
<rect x="1.82174" y="9.65341" width="54" height="46" rx="4.5" transform="rotate(-7.94035 1.82174 9.65341)" fill="white" stroke="black" stroke-width="3"/>
<circle cx="15.9279" cy="20.3082" r="4" transform="rotate(-7.94035 15.9279 20.3082)" fill="white" stroke="black" stroke-width="2"/>
<path d="M7.41765 49.7668L18.071 35.6599C18.7582 34.5544 20.8098 32.8547 23.5183 34.9001C26.2268 36.9456 39.8401 45.7488 46.3082 49.8947" stroke="black" stroke-width="3"/>
<path d="M25.7044 36.1101L38.4885 19.1817C39.3407 18.0532 41.7224 16.3074 44.4309 18.3529C47.1395 20.3983 55.2481 25.9306 58.9639 28.441" stroke="black" stroke-width="3"/>
<rect x="35.8732" y="12.3371" width="54" height="46" rx="4.5" transform="rotate(15 35.8732 12.3371)" fill="white" stroke="black" stroke-width="3"/>
<circle cx="44.7113" cy="27.6472" r="4" transform="rotate(15 44.7113 27.6472)" fill="white" stroke="black" stroke-width="2"/>
<path d="M25.3905 51.4596L40.6998 42.6207C41.7636 41.8705 44.3154 41.1048 46.0124 44.0442C47.7095 46.9836 56.8149 60.3967 61.1554 66.7358" stroke="black" stroke-width="3"/>
<path d="M47.556 46.0111L65.9272 35.4045C67.1519 34.6974 70.0257 34.018 71.7227 36.9574C73.4198 39.8968 78.7308 48.152 81.1742 51.9122" stroke="black" stroke-width="3"/>
<rect x="16.6289" y="31" width="54" height="46" rx="4.5" fill="white" stroke="black" stroke-width="3"/>
<circle cx="29.1289" cy="43.5" r="4" fill="white" stroke="black" stroke-width="2"/>
<path d="M16.6289 71.5009L29.1289 59.0009C29.9622 58.0009 32.2289 56.6009 34.6289 59.0009C37.0289 61.4009 49.2956 72.0003 55.1289 77" stroke="black" stroke-width="3"/>
<path d="M36.6289 60.5009L51.6289 45.5009C52.6289 44.5009 55.2289 43.1009 57.6289 45.5009C60.0289 47.9009 67.2956 54.5003 70.6289 57.5" stroke="black" stroke-width="3"/>
</svg>
