<?xml version="1.0" encoding="iso-8859-1"?>
<!-- Uploaded to: SVG Repo, www.svgrepo.com, Generator: SVG Repo Mixer Tools -->
<svg fill="#000000" height="800px" width="800px" version="1.1" id="Layer_1" xmlns="http://www.w3.org/2000/svg" xmlns:xlink="http://www.w3.org/1999/xlink" 
	 viewBox="0 0 511.965 511.965" xml:space="preserve">
<g>
	<g>
		<g>
			<path d="M106.66,84.768c-11.776,0-21.333,9.557-21.333,21.333s9.557,21.333,21.333,21.333s21.333-9.557,21.333-21.333
				S118.436,84.768,106.66,84.768z"/>
			<path d="M493.227,239.793L379.669,126.257c-9.707-9.707-22.315-15.36-35.499-17.28c-9.067-37.141-41.963-70.293-92.288-91.136
				C201.728-2.937,136.789-8.761,98.56,21.596C43.584,25.82,0,71.388,0,127.431c0,23.872,8.149,45.675,21.44,63.467
				c-0.021,0.192-0.107,0.341-0.107,0.533v64c0,9.195,5.867,17.344,14.571,20.245l22.635,7.531l-27.712,18.475
				c-5.931,3.968-9.493,10.624-9.493,17.749c0,7.147,3.563,13.803,9.493,17.749l37.376,24.917l-37.376,24.917
				c-5.931,3.968-9.493,10.624-9.493,17.749v42.667c0,7.147,3.563,13.803,9.493,17.749l64,42.667
				c3.584,2.389,7.701,3.584,11.84,3.584c4.117,0,8.235-1.195,11.819-3.584l64-42.667c5.952-3.947,9.515-10.603,9.515-17.749v-256
				c0-0.192-0.107-0.341-0.107-0.533c13.291-17.792,21.44-39.595,21.44-63.467c0-34.432-16.683-64.789-42.091-84.309
				c19.755,0.405,42.347,5.035,64.32,14.144c28.608,11.84,58.773,33.003,66.645,59.307c-4.736,2.667-9.28,5.739-13.205,9.685
				l-55.531,55.531c-12.096,12.096-18.795,28.203-18.795,45.333c0,17.109,6.699,33.216,18.795,45.333l113.536,113.536
				c12.117,12.117,28.224,18.773,45.333,18.773c17.131,0,33.237-6.656,45.333-18.773l55.552-55.531l0.021-0.021
				C518.208,305.457,518.208,264.796,493.227,239.793z M106.667,191.431c-35.307,0-64-28.715-64-64s28.693-64,64-64
				c35.285,0,64,28.715,64,64S141.952,191.431,106.667,191.431z M334.336,227.1c-8.021,8.021-20.992,8.021-29.013,0
				c-8-8-8-20.992,0-28.992c8.021-8.021,20.992-8.021,29.013,0C342.336,206.108,342.336,219.1,334.336,227.1z M421.931,314.716
				c-4.16,4.16-9.621,6.251-15.083,6.251c-5.461,0-10.923-2.091-15.083-6.251l-43.499-43.52c-8.341-8.32-8.341-21.824,0-30.165
				c8.32-8.32,21.824-8.32,30.165,0l43.499,43.52C430.272,292.892,430.272,306.396,421.931,314.716z"/>
		</g>
	</g>
</g>
</svg>