<svg width="22" height="22" viewBox="0 0 22 22" fill="none" xmlns="http://www.w3.org/2000/svg">
<path d="M10.5417 19.9382C5.36254 19.9382 1.14587 15.7215 1.14587 10.5423C1.14587 5.36315 5.36254 1.14648 10.5417 1.14648C15.7209 1.14648 19.9375 5.36315 19.9375 10.5423C19.9375 15.7215 15.7209 19.9382 10.5417 19.9382ZM10.5417 2.52148C6.11421 2.52148 2.52087 6.12398 2.52087 10.5423C2.52087 14.9607 6.11421 18.5632 10.5417 18.5632C14.9692 18.5632 18.5625 14.9607 18.5625 10.5423C18.5625 6.12398 14.9692 2.52148 10.5417 2.52148Z" fill="white" fill-opacity="0.88"/>
<path d="M20.1666 20.8545C19.9924 20.8545 19.8183 20.7903 19.6808 20.6528L17.8474 18.8195C17.5816 18.5536 17.5816 18.1136 17.8474 17.8478C18.1133 17.582 18.5533 17.582 18.8191 17.8478L20.6524 19.6811C20.9183 19.947 20.9183 20.387 20.6524 20.6528C20.5149 20.7903 20.3408 20.8545 20.1666 20.8545Z" fill="white" fill-opacity="0.88"/>
</svg>
