<svg width="30" height="30" viewBox="0 0 30 30" fill="none" xmlns="http://www.w3.org/2000/svg">
<path d="M14.375 27.1875C7.3125 27.1875 1.5625 21.4375 1.5625 14.375C1.5625 7.3125 7.3125 1.5625 14.375 1.5625C21.4375 1.5625 27.1875 7.3125 27.1875 14.375C27.1875 21.4375 21.4375 27.1875 14.375 27.1875ZM14.375 3.4375C8.3375 3.4375 3.4375 8.35 3.4375 14.375C3.4375 20.4 8.3375 25.3125 14.375 25.3125C20.4125 25.3125 25.3125 20.4 25.3125 14.375C25.3125 8.35 20.4125 3.4375 14.375 3.4375Z" fill="black" fill-opacity="0.88"/>
<path d="M27.5 28.4363C27.2625 28.4363 27.025 28.3488 26.8375 28.1613L24.3375 25.6613C23.975 25.2988 23.975 24.6988 24.3375 24.3363C24.7 23.9738 25.3 23.9738 25.6625 24.3363L28.1625 26.8363C28.525 27.1988 28.525 27.7988 28.1625 28.1613C27.975 28.3488 27.7375 28.4363 27.5 28.4363Z" fill="black" fill-opacity="0.88"/>
</svg>
