<svg width="30" height="30" viewBox="0 0 30 30" fill="none" xmlns="http://www.w3.org/2000/svg">
<path d="M27.5 9.0625H20C19.4875 9.0625 19.0625 8.6375 19.0625 8.125C19.0625 7.6125 19.4875 7.1875 20 7.1875H27.5C28.0125 7.1875 28.4375 7.6125 28.4375 8.125C28.4375 8.6375 28.0125 9.0625 27.5 9.0625Z" fill="white"/>
<path d="M7.5 9.0625H2.5C1.9875 9.0625 1.5625 8.6375 1.5625 8.125C1.5625 7.6125 1.9875 7.1875 2.5 7.1875H7.5C8.0125 7.1875 8.4375 7.6125 8.4375 8.125C8.4375 8.6375 8.0125 9.0625 7.5 9.0625Z" fill="white"/>
<path d="M12.5 13.4375C9.575 13.4375 7.1875 11.05 7.1875 8.125C7.1875 5.2 9.575 2.8125 12.5 2.8125C15.425 2.8125 17.8125 5.2 17.8125 8.125C17.8125 11.05 15.425 13.4375 12.5 13.4375ZM12.5 4.6875C10.6 4.6875 9.0625 6.225 9.0625 8.125C9.0625 10.025 10.6 11.5625 12.5 11.5625C14.4 11.5625 15.9375 10.025 15.9375 8.125C15.9375 6.225 14.4 4.6875 12.5 4.6875Z" fill="white"/>
<path d="M27.5 22.8125H22.5C21.9875 22.8125 21.5625 22.3875 21.5625 21.875C21.5625 21.3625 21.9875 20.9375 22.5 20.9375H27.5C28.0125 20.9375 28.4375 21.3625 28.4375 21.875C28.4375 22.3875 28.0125 22.8125 27.5 22.8125Z" fill="white"/>
<path d="M10 22.8125H2.5C1.9875 22.8125 1.5625 22.3875 1.5625 21.875C1.5625 21.3625 1.9875 20.9375 2.5 20.9375H10C10.5125 20.9375 10.9375 21.3625 10.9375 21.875C10.9375 22.3875 10.5125 22.8125 10 22.8125Z" fill="white"/>
<path d="M17.5 27.1875C14.575 27.1875 12.1875 24.8 12.1875 21.875C12.1875 18.95 14.575 16.5625 17.5 16.5625C20.425 16.5625 22.8125 18.95 22.8125 21.875C22.8125 24.8 20.425 27.1875 17.5 27.1875ZM17.5 18.4375C15.6 18.4375 14.0625 19.975 14.0625 21.875C14.0625 23.775 15.6 25.3125 17.5 25.3125C19.4 25.3125 20.9375 23.775 20.9375 21.875C20.9375 19.975 19.4 18.4375 17.5 18.4375Z" fill="white"/>
</svg>
