<svg width="46" height="46" viewBox="0 0 46 46" fill="none" xmlns="http://www.w3.org/2000/svg">
<path d="M23.5376 7.7157V11.8353L27.6531 9.45859L28.6753 11.2301L23.5376 14.1956V21.2775L29.671 17.7365V11.8046H31.7154V16.5559L35.284 14.4971L36.3062 16.2676L32.7376 18.3274L36.8531 20.703L35.8309 22.4745L30.6932 19.507L24.5599 23.048L30.6942 26.59L35.8309 23.6235L36.8531 25.394L32.7376 27.7697L36.3062 29.8305L35.284 31.6009L31.7154 29.5412V34.2935H29.671V28.3605L23.5376 24.8185V31.9015L28.6753 34.868L27.6531 36.6385L23.5376 34.2618V38.3824H21.4932V34.2618L17.3777 36.6385L16.3555 34.868L21.4932 31.9015V24.8185L15.3599 28.3595V34.2935H13.3154V29.5401L9.74787 31.6009L8.72564 29.8305L12.2922 27.7697L8.17773 25.394L9.19996 23.6235L14.3366 26.589L20.47 23.048L14.3376 19.507L9.19996 22.4745L8.17773 20.703L12.2932 18.3274L8.72564 16.2676L9.74787 14.4971L13.3154 16.5559V11.8046H15.3599V17.7365L21.4932 21.2775V14.1956L16.3555 11.2301L17.3777 9.45859L21.4932 11.8353V7.7157H23.5376Z" fill="#3C3C3C"/>
</svg>
