<svg width="46" height="46" viewBox="0 0 46 46" fill="none" xmlns="http://www.w3.org/2000/svg">
<path d="M10.222 13.8H18.3998V10.7333C18.4008 10.1915 18.6165 9.6712 18.9998 9.28787C19.3822 8.90555 19.9025 8.68987 20.4442 8.68884H34.7554C35.2971 8.68987 35.8174 8.90453 36.2008 9.28787C36.5841 9.6712 36.7988 10.1915 36.7998 10.7333V35.2666C36.7988 35.8084 36.5831 36.3287 36.2008 36.711C35.8174 37.0944 35.2971 37.31 34.7554 37.3111H10.222C9.68025 37.31 9.16096 37.0944 8.77763 36.711C8.39429 36.3277 8.1786 35.8084 8.17758 35.2666V15.8444C8.1786 15.3026 8.39429 14.7823 8.77763 14.399C9.15994 14.0167 9.68025 13.801 10.222 13.8ZM25.5554 35.2666H29.6442V30.1555H25.5554V35.2666ZM20.4442 35.2666H23.5109V30.1555C23.5119 29.6137 23.7276 29.0934 24.111 28.7111C24.4933 28.3278 25.0136 28.1121 25.5554 28.1111H29.6442C30.186 28.1121 30.7063 28.3278 31.0897 28.7111C31.472 29.0934 31.6877 29.6137 31.6887 30.1555V35.2666H34.7554L34.7564 10.7333H20.4442V35.2666ZM10.222 35.2666H18.3998V15.8444H10.222V35.2666ZM23.5109 23C23.5109 23.2024 23.5712 23.3996 23.6837 23.5683C23.7951 23.736 23.9556 23.8668 24.1416 23.9445C24.3287 24.0222 24.5342 24.0416 24.7325 24.0028C24.9308 23.9629 25.1127 23.8658 25.2558 23.7227C25.399 23.5796 25.4961 23.3976 25.5359 23.1993C25.5748 23.001 25.5554 22.7955 25.4777 22.6084C25.4 22.4224 25.2691 22.2619 25.1015 22.1505C24.9328 22.038 24.7355 21.9777 24.5331 21.9777C24.2622 21.9777 24.0016 22.0851 23.8104 22.2772C23.6182 22.4684 23.5109 22.7291 23.5109 23ZM23.5109 18.9111C23.5109 19.1135 23.5712 19.3108 23.6837 19.4794C23.7951 19.6471 23.9556 19.7779 24.1416 19.8556C24.3287 19.9333 24.5342 19.9527 24.7325 19.9139C24.9308 19.874 25.1127 19.7769 25.2558 19.6338C25.399 19.4907 25.4961 19.3087 25.5359 19.1104C25.5748 18.9121 25.5554 18.7066 25.4777 18.5196C25.4 18.3335 25.2691 18.173 25.1015 18.0616C24.9328 17.9492 24.7355 17.8888 24.5331 17.8888C24.2622 17.8888 24.0016 17.9962 23.8104 18.1884C23.6182 18.3795 23.5109 18.6402 23.5109 18.9111ZM23.5109 14.8222C23.5109 15.0246 23.5712 15.2219 23.6837 15.3905C23.7951 15.5582 23.9556 15.689 24.1416 15.7667C24.3287 15.8444 24.5342 15.8638 24.7325 15.825C24.9308 15.7851 25.1127 15.688 25.2558 15.5449C25.399 15.4018 25.4961 15.2198 25.5359 15.0215C25.5748 14.8232 25.5554 14.6177 25.4777 14.4307C25.4 14.2446 25.2691 14.0841 25.1015 13.9727C24.9328 13.8603 24.7355 13.8 24.5331 13.8C24.2622 13.8 24.0016 13.9073 23.8104 14.0995C23.6182 14.2906 23.5109 14.5513 23.5109 14.8222ZM29.6442 23C29.6442 23.2024 29.7046 23.3996 29.817 23.5683C29.9284 23.736 30.0889 23.8668 30.275 23.9445C30.462 24.0222 30.6675 24.0416 30.8658 24.0028C31.0641 23.9629 31.2461 23.8658 31.3892 23.7227C31.5323 23.5796 31.6294 23.3976 31.6693 23.1993C31.7081 23.001 31.6887 22.7955 31.611 22.6084C31.5333 22.4224 31.4025 22.2619 31.2348 22.1505C31.0662 22.038 30.8689 21.9777 30.6665 21.9777C30.3956 21.9777 30.1349 22.0851 29.9438 22.2772C29.7516 22.4684 29.6442 22.7291 29.6442 23ZM29.6442 18.9111C29.6442 19.1135 29.7046 19.3108 29.817 19.4794C29.9284 19.6471 30.0889 19.7779 30.275 19.8556C30.462 19.9333 30.6675 19.9527 30.8658 19.9139C31.0641 19.874 31.2461 19.7769 31.3892 19.6338C31.5323 19.4907 31.6294 19.3087 31.6693 19.1104C31.7081 18.9121 31.6887 18.7066 31.611 18.5196C31.5333 18.3335 31.4025 18.173 31.2348 18.0616C31.0662 17.9492 30.8689 17.8888 30.6665 17.8888C30.3956 17.8888 30.1349 17.9962 29.9438 18.1884C29.7516 18.3795 29.6442 18.6402 29.6442 18.9111ZM29.6442 14.8222C29.6442 15.0246 29.7046 15.2219 29.817 15.3905C29.9284 15.5582 30.0889 15.689 30.275 15.7667C30.462 15.8444 30.6675 15.8638 30.8658 15.825C31.0641 15.7851 31.2461 15.688 31.3892 15.5449C31.5323 15.4018 31.6294 15.2198 31.6693 15.0215C31.7081 14.8232 31.6887 14.6177 31.611 14.4307C31.5333 14.2446 31.4025 14.0841 31.2348 13.9727C31.0662 13.8603 30.8689 13.8 30.6665 13.8C30.3956 13.8 30.1349 13.9073 29.9438 14.0995C29.7516 14.2906 29.6442 14.5513 29.6442 14.8222Z" fill="#3C3C3C"/>
</svg>
