<svg width="46" height="46" viewBox="0 0 46 46" fill="none" xmlns="http://www.w3.org/2000/svg">
<g clip-path="url(#clip0_757_29113)">
<path d="M19.4226 26.45L14.3115 37.6944" stroke="#3C3C3C" stroke-width="2" stroke-linejoin="round"/>
<path d="M27.6006 26.45L32.7117 37.6944" stroke="#3C3C3C" stroke-width="2" stroke-linejoin="round"/>
<path d="M23.5117 37.6944V26.45" stroke="#3C3C3C" stroke-width="2" stroke-linejoin="round"/>
<path d="M12.2666 16.2278C12.2666 22.4378 17.301 27.4722 23.511 27.4722C29.721 27.4722 34.7555 22.4378 34.7555 16.2278" stroke="#3C3C3C" stroke-width="2" stroke-linejoin="round"/>
<path d="M30.6666 32.5834H16.3555" stroke="#3C3C3C" stroke-width="2" stroke-linejoin="round"/>
<path d="M13.2891 19.2944H9.2002" stroke="#3C3C3C" stroke-width="2" stroke-linejoin="round"/>
<path d="M37.8223 19.2944H33.7334" stroke="#3C3C3C" stroke-width="2" stroke-linejoin="round"/>
<path d="M20.1436 15.2056C16.5116 15.2056 11.2451 15.2056 11.2451 15.2056" stroke="#3C3C3C" stroke-width="2" stroke-linejoin="round"/>
<path d="M35.7782 15.2056C35.7782 15.2056 33.0254 15.2056 30.1836 15.2056" stroke="#3C3C3C" stroke-width="2" stroke-linejoin="round"/>
<path d="M31.6829 -13.4167C31.688 -8.47626 27.6002 -7.19849 27.6002 -2.17222C27.6002 2.85405 31.688 4.13183 31.6829 9.07223C31.6778 14.0126 27.6002 15.3763 27.6002 20.3167M26.5718 -13.4167C26.5769 -8.47626 22.489 -7.19849 22.489 -2.17222C22.489 2.85405 26.5769 4.13183 26.5718 9.07223C26.5667 14.0126 22.489 15.3763 22.489 20.3167M21.4607 -13.4167C21.4658 -8.47626 17.3779 -7.19849 17.3779 -2.17222C17.3779 2.85405 21.4658 4.13183 21.4607 9.07223C21.4556 14.0126 17.3779 15.3763 17.3779 20.3167M31.6829 -35.973C31.688 -31.0326 27.6002 -29.7548 27.6002 -24.7286C27.6002 -19.7023 31.688 -18.4245 31.6829 -13.4841V-13.4167C31.688 -8.47626 27.6002 -7.19849 27.6002 -2.17222C27.6002 2.85405 31.688 4.13183 31.6829 9.07223C31.6778 14.0126 27.6002 15.3763 27.6002 20.3167M26.5718 -35.973C26.5769 -31.0326 22.489 -29.7548 22.489 -24.7286C22.489 -19.7023 26.5769 -18.4245 26.5718 -13.4841V-13.4167C26.5769 -8.47626 22.489 -7.19849 22.489 -2.17222C22.489 2.85405 26.5769 4.13183 26.5718 9.07223C26.5667 14.0126 22.489 15.3763 22.489 20.3167M21.4607 -35.973C21.4658 -31.0326 17.3779 -29.7548 17.3779 -24.7286C17.3779 -19.7023 21.4658 -18.4245 21.4607 -13.4841V-13.4167C21.4658 -8.47626 17.3779 -7.19849 17.3779 -2.17222C17.3779 2.85405 21.4658 4.13183 21.4607 9.07223C21.4556 14.0126 17.3779 15.3763 17.3779 20.3167" stroke="#3C3C3C" stroke-width="2" stroke-linejoin="round"/>
</g>
<defs>
<clipPath id="clip0_757_29113">
<rect width="46" height="46" fill="white"/>
</clipPath>
</defs>
</svg>
