<svg width="46" height="46" viewBox="0 0 46 46" fill="none" xmlns="http://www.w3.org/2000/svg">
<path d="M34.2442 21.2182V13.9758H35.2664V23.2627V23.4743L35.4156 23.6246L37.8219 26.0298L37.0992 26.7536L36.1383 25.7927L35.2664 24.9187V26.1535V26.7536C35.2664 27.4078 35.021 28.0038 34.6162 28.4566L34.3106 28.797L34.6152 29.1384C34.9883 29.5545 35.2255 30.0922 35.2613 30.684L35.2664 30.8496V31.8647C35.2664 32.5189 35.021 33.1149 34.6162 33.5677L34.3106 33.9081L34.6152 34.2495C34.9883 34.6656 35.2255 35.2033 35.2613 35.7951L35.2664 35.9607V36.9758C35.2664 38.3343 34.2063 39.4455 32.8682 39.5262L32.7037 39.5314H12.2664C10.9079 39.5314 9.7967 38.4713 9.71594 37.1332L9.71083 36.9676V35.9536C9.71083 35.2983 9.95616 34.7024 10.361 34.2495L10.6666 33.9091L10.361 33.5677C9.98887 33.1517 9.75172 32.614 9.71594 32.0221L9.71083 31.8565V30.8425C9.71083 30.1872 9.95616 29.5913 10.361 29.1384L10.6666 28.798L10.361 28.4566C9.99909 28.0518 9.76398 27.5315 9.71901 26.957L9.71083 26.7434V26.1535V24.9197L8.83785 25.7927L7.87798 26.7536L7.15527 26.0309L20.6813 12.5038C21.6371 11.548 23.1633 11.5082 24.1661 12.3832L24.301 12.5099L33.3712 21.5801L34.2442 22.4521V21.2182ZM17.8886 34.9303V34.4192H17.3775L12.2664 34.4202C11.4793 34.4202 10.8322 35.0121 10.7433 35.7747L10.7412 35.79L10.7402 35.8043L10.7341 35.9239L10.7331 35.9382V35.9536V36.9758C10.7331 37.7619 11.3249 38.41 12.0885 38.4989L12.1028 38.4999L12.1171 38.501L12.2367 38.5081L12.2511 38.5091H12.2664H17.3775H17.8886V37.998V34.9303ZM26.0664 28.798V28.2869H25.5553H19.4219H18.9108V28.798V37.998V38.5091H19.4219H25.5553H26.0664V37.998V28.798ZM32.7405 34.4202H32.7251H32.7108L27.5997 34.4192H27.0886V34.9303V37.998V38.5091H27.5997H32.7108C33.4969 38.5091 34.145 37.9162 34.2339 37.1537L34.235 37.1394L34.236 37.124L34.2431 37.0044L34.2442 36.9901V36.9758V35.9536C34.2442 35.1665 33.6523 34.5184 32.8887 34.4305L32.8744 34.4284L32.8591 34.4274L32.7405 34.4202ZM32.7405 29.3091H32.7251H32.7108L27.5997 29.3081H27.0886V29.8192V32.8859V33.397H27.5997L32.7108 33.398C33.4969 33.398 34.145 32.8051 34.2339 32.0426L34.235 32.0282L34.236 32.0129L34.2431 31.8933L34.2442 31.879V31.8647V30.8425C34.2442 30.0554 33.6523 29.4073 32.8887 29.3194L32.8744 29.3173L32.8591 29.3163L32.7405 29.3091ZM17.8886 29.8192V29.3081H17.3775L12.2664 29.3091C11.4793 29.3091 10.8322 29.901 10.7433 30.6636L10.7412 30.6789L10.7402 30.6932L10.7341 30.8128L10.7331 30.8271V30.8425V31.8647C10.7331 32.6508 11.3249 33.2989 12.0885 33.3878L12.1028 33.3888L12.1171 33.3898L12.2367 33.397L12.2511 33.398H12.2664L17.3775 33.397H17.8886V32.8859V29.8192ZM10.7433 25.5525L10.7412 25.5678L10.7402 25.5821L10.7341 25.7017L10.7331 25.716V25.7314V26.7536C10.7331 27.5397 11.3249 28.1878 12.0885 28.2767L12.1028 28.2777L12.1171 28.2787L12.2367 28.2859L12.2511 28.2869H12.2664L17.6515 28.2859H17.9459L18.0931 28.0303C18.3404 27.6051 18.7841 27.3097 19.2983 27.2688L19.4311 27.2647H25.5553C26.1216 27.2647 26.6174 27.5714 26.8831 28.0314L27.0314 28.2859H27.3258L32.7108 28.2869C33.4969 28.2869 34.145 27.694 34.2339 26.9314L34.235 26.9171L34.236 26.9018L34.2431 26.7822L34.2442 26.7679V26.7536V25.7314C34.2442 24.8839 33.5572 24.198 32.7108 24.198H12.2664C11.4793 24.198 10.8322 24.7899 10.7433 25.5525ZM29.5818 19.2351L29.4326 19.0859H29.221H15.7563H15.5447L15.3944 19.2351L12.3277 22.3018L11.4558 23.1748H12.6896H32.2876H33.5214L32.6485 22.3018L29.5818 19.2351ZM21.5482 13.0998L21.5359 13.11L21.5236 13.1202L21.4275 13.205L21.4153 13.2153L21.404 13.2265L17.4388 17.1907L16.5659 18.0637H17.8007H27.1765H28.4103L27.5374 17.1907L23.5722 13.2265C23.0191 12.6735 22.1503 12.6316 21.5482 13.0998Z" fill="#3C3C3C"/>
<path d="M34.2442 21.2182V13.9758H35.2664V23.2627V23.4743L35.4156 23.6246L37.8219 26.0298L37.0992 26.7536L36.1383 25.7927L35.2664 24.9187V26.1535V26.7536C35.2664 27.4078 35.021 28.0038 34.6162 28.4566L34.3106 28.797L34.6152 29.1384C34.9883 29.5545 35.2255 30.0922 35.2613 30.684L35.2664 30.8496V31.8647C35.2664 32.5189 35.021 33.1149 34.6162 33.5677L34.3106 33.9081L34.6152 34.2495C34.9883 34.6656 35.2255 35.2033 35.2613 35.7951L35.2664 35.9607V36.9758C35.2664 38.3343 34.2063 39.4455 32.8682 39.5262L32.7037 39.5314H12.2664C10.9079 39.5314 9.7967 38.4713 9.71594 37.1332L9.71083 36.9676V35.9536C9.71083 35.2983 9.95616 34.7024 10.361 34.2495L10.6666 33.9091L10.361 33.5677C9.98887 33.1517 9.75172 32.614 9.71594 32.0221L9.71083 31.8565V30.8425C9.71083 30.1872 9.95616 29.5913 10.361 29.1384L10.6666 28.798L10.361 28.4566C9.9991 28.0518 9.76398 27.5315 9.71901 26.957L9.71083 26.7434V26.1535V24.9197L8.83785 25.7927L7.87798 26.7536L7.15527 26.0309L20.6813 12.5038C21.6371 11.548 23.1633 11.5082 24.1661 12.3832L24.301 12.5099L33.3712 21.5801L34.2442 22.4521V21.2182ZM17.8886 34.9303V34.4192H17.3775L12.2664 34.4202C11.4793 34.4202 10.8322 35.0121 10.7433 35.7747L10.7412 35.79L10.7402 35.8043L10.7341 35.9239L10.7331 35.9382V35.9536V36.9758C10.7331 37.7619 11.3249 38.41 12.0885 38.4989L12.1028 38.4999L12.1171 38.501L12.2367 38.5081L12.2511 38.5091H12.2664H17.3775H17.8886V37.998V34.9303ZM26.0664 28.798V28.2869H25.5553H19.4219H18.9108V28.798V37.998V38.5091H19.4219H25.5553H26.0664V37.998V28.798ZM32.7405 34.4202H32.7251H32.7108L27.5997 34.4192H27.0886V34.9303V37.998V38.5091H27.5997H32.7108C33.4969 38.5091 34.145 37.9162 34.2339 37.1537L34.235 37.1394L34.236 37.124L34.2431 37.0044L34.2442 36.9901V36.9758V35.9536C34.2442 35.1665 33.6523 34.5184 32.8887 34.4305L32.8744 34.4284L32.8591 34.4274L32.7405 34.4202ZM32.7405 29.3091H32.7251H32.7108L27.5997 29.3081H27.0886V29.8192V32.8859V33.397H27.5997L32.7108 33.398C33.4969 33.398 34.145 32.8051 34.2339 32.0426L34.235 32.0282L34.236 32.0129L34.2431 31.8933L34.2442 31.879V31.8647V30.8425C34.2442 30.0554 33.6523 29.4073 32.8887 29.3194L32.8744 29.3173L32.8591 29.3163L32.7405 29.3091ZM17.8886 29.8192V29.3081H17.3775L12.2664 29.3091C11.4793 29.3091 10.8322 29.901 10.7433 30.6636L10.7412 30.6789L10.7402 30.6932L10.7341 30.8128L10.7331 30.8271V30.8425V31.8647C10.7331 32.6508 11.3249 33.2989 12.0885 33.3878L12.1028 33.3888L12.1171 33.3898L12.2367 33.397L12.2511 33.398H12.2664L17.3775 33.397H17.8886V32.8859V29.8192ZM10.7433 25.5525L10.7412 25.5678L10.7402 25.5821L10.7341 25.7017L10.7331 25.716V25.7314V26.7536C10.7331 27.5397 11.3249 28.1878 12.0885 28.2767L12.1028 28.2777L12.1171 28.2787L12.2367 28.2859L12.2511 28.2869H12.2664L17.6515 28.2859H17.9459L18.0931 28.0303C18.3404 27.6051 18.7841 27.3097 19.2983 27.2688L19.4311 27.2647H25.5553C26.1216 27.2647 26.6174 27.5714 26.8831 28.0314L27.0314 28.2859H27.3258L32.7108 28.2869C33.4969 28.2869 34.145 27.694 34.2339 26.9314L34.235 26.9171L34.236 26.9018L34.2431 26.7822L34.2442 26.7679V26.7536V25.7314C34.2442 24.8839 33.5572 24.198 32.7108 24.198H12.2664C11.4793 24.198 10.8322 24.7899 10.7433 25.5525ZM29.5818 19.2351L29.4326 19.0859H29.221H15.7563H15.5447L15.3944 19.2351L12.3277 22.3018L11.4558 23.1748H12.6896H32.2876H33.5214L32.6485 22.3018L29.5818 19.2351ZM21.5482 13.0998L21.5359 13.11L21.5236 13.1202L21.4275 13.205L21.4153 13.2153L21.404 13.2265L17.4388 17.1907L16.5659 18.0637H17.8007H27.1765H28.4103L27.5374 17.1907L23.5722 13.2265C23.0191 12.6735 22.1503 12.6316 21.5482 13.0998Z" stroke="#3C3C3C"/>
</svg>
