<svg width="46" height="46" viewBox="0 0 46 46" fill="none" xmlns="http://www.w3.org/2000/svg">
<path d="M23.511 15.8445H24.5333C25.0577 15.8445 25.4901 16.2391 25.5483 16.7471L25.5555 16.8667V18.9111H26.5777V16.8667C26.5777 16.3832 26.914 15.9774 27.3658 15.8711L27.4803 15.8516L27.5999 15.8445H31.6888C32.2132 15.8445 32.6456 16.2391 32.7039 16.7471L32.711 16.8667V21.9778C32.711 22.1393 32.6732 22.2978 32.6006 22.4409L32.5393 22.5451L30.6666 25.3532V37.3111C30.6666 37.7947 30.3303 38.2005 29.8785 38.3068L29.764 38.3262L29.6444 38.3334H15.3333C14.8089 38.3334 14.3765 37.9388 14.3182 37.4308L14.311 37.3111V25.3552L12.4383 22.5451C12.3709 22.4439 12.3228 22.3325 12.2952 22.216L12.2738 22.0984L12.2666 21.9778V16.8667C12.2666 16.3423 12.6612 15.9099 13.1692 15.8516L13.2888 15.8445H17.3777C17.9021 15.8445 18.3345 16.2391 18.3928 16.7471L18.3999 16.8667V18.9111H19.4222V16.8667C19.4222 16.3832 19.7585 15.9774 20.2103 15.8711L20.3248 15.8516L20.4444 15.8445H21.4666H23.511ZM16.3555 17.8889H14.311V21.6681L16.1838 24.4771C16.2512 24.5783 16.2993 24.6898 16.3269 24.8063L16.3483 24.9239L16.3555 25.0445V36.2889H18.3999V32.2C18.3999 30.0104 20.1214 28.2226 22.2844 28.1163L22.4888 28.1111C24.6784 28.1111 26.4663 29.8326 26.5726 31.9956L26.5777 32.2V36.2889H28.6222V28.1111H26.5777V26.0667H28.6222V25.0445C28.6222 24.9239 28.6436 24.8043 28.6855 24.6918L28.7326 24.5814L28.7939 24.4771L30.6666 21.6671V17.8889H28.6222V19.9334C28.6222 20.4169 28.2858 20.8227 27.834 20.929L27.7195 20.9484L27.5999 20.9556H24.5333C24.0089 20.9556 23.5765 20.561 23.5182 20.053L23.511 19.9334V17.8889H21.4666V19.9334C21.4666 20.4169 21.1303 20.8227 20.6785 20.929L20.564 20.9484L20.4444 20.9556H17.3777C16.8533 20.9556 16.4209 20.561 16.3626 20.053L16.3555 19.9334V17.8889ZM22.4888 30.1556C21.4114 30.1556 20.5282 30.9897 20.4495 32.0477L20.4444 32.2V36.2889H24.5333V32.2C24.5333 31.1758 23.7809 30.3284 22.7986 30.1791L22.6411 30.1607L22.4888 30.1556ZM26.5777 25.0445H23.511V23H26.5777V25.0445Z" fill="#3C3C3C"/>
<path d="M22.7441 16.6112V8.75232" stroke="#3C3C3C" stroke-width="2" stroke-linecap="round" stroke-linejoin="round"/>
<path d="M27.9934 12.7819H22.8721V8.68689H27.9934V12.7819Z" stroke="#3C3C3C" stroke-width="2" stroke-linecap="round" stroke-linejoin="round"/>
</svg>
