<svg width="46" height="46" viewBox="0 0 46 46" fill="none" xmlns="http://www.w3.org/2000/svg">
<path d="M38.8449 35.7777H36.8005V33.7333H8.17823V35.7777H6.13379V11.2444C6.13379 10.9939 6.22579 10.7527 6.39241 10.5656C6.55801 10.3786 6.78801 10.259 7.03641 10.2293L7.15601 10.2222H37.8227C38.0731 10.2222 38.3144 10.3142 38.5014 10.4808C38.6885 10.6464 38.8081 10.8764 38.8377 11.1248L38.8449 11.2444V35.7777ZM36.8005 12.2666H8.17823V31.6888H36.8005V12.2666ZM33.7338 29.6444H31.6893V14.3111H33.7338V29.6444ZM13.2893 29.6444H11.2449V14.3111H13.2893V29.6444ZM18.4005 29.6444H16.356V14.3111H18.4005V29.6444ZM23.5116 29.6444H21.4671V14.3111H23.5116V29.6444ZM28.6227 29.6444H26.5782V14.3111H28.6227V29.6444Z" fill="#3C3C3C"/>
</svg>
