<svg width="46" height="46" viewBox="0 0 46 46" fill="none" xmlns="http://www.w3.org/2000/svg">
<path d="M34.7555 8.68884V15.6256C36.019 17.7212 36.7202 20.1071 36.7928 22.5522L36.8 23V35.2666C36.8 35.7828 36.6057 36.2796 36.2551 36.6579C35.9035 37.0351 35.423 37.2671 34.9088 37.306L34.7555 37.3111H10.2222C9.70596 37.3111 9.20916 37.1168 8.83093 36.7652C8.45271 36.4146 8.22169 35.9341 8.18285 35.42L8.17773 35.2666V23C8.17773 15.0961 14.585 8.68884 22.4888 8.68884C26.4939 8.68884 30.1146 10.3346 32.7111 12.9852V8.68884H34.7555ZM22.4888 10.7333C15.8188 10.7333 10.3919 16.058 10.2263 22.6882L10.2222 23V35.2666H17.3777V25.0444H15.3333V23H29.6444V25.0444H27.6V35.2666H34.7555V23C34.7555 16.2257 29.2631 10.7333 22.4888 10.7333ZM25.5555 25.0444H19.4222V35.2666H25.5555V25.0444ZM22.4888 17.8888C22.7597 17.8888 23.0204 17.9962 23.2116 18.1884C23.4037 18.3795 23.5111 18.6402 23.5111 18.9111C23.5111 19.182 23.4037 19.4426 23.2116 19.6338C23.0204 19.826 22.7597 19.9333 22.4888 19.9333C22.218 19.9333 21.9573 19.826 21.7661 19.6338C21.574 19.4426 21.4666 19.182 21.4666 18.9111C21.4666 18.6402 21.574 18.3795 21.7661 18.1884C21.9573 17.9962 22.218 17.8888 22.4888 17.8888Z" fill="#3C3C3C"/>
</svg>
