<svg width="46" height="46" viewBox="0 0 46 46" fill="none" xmlns="http://www.w3.org/2000/svg">
<path d="M15.333 20.4444V35.7777H11.2441V13.2888H35.7775V35.7777H31.6886V20.4444C31.6886 19.8801 31.2306 19.4222 30.6664 19.4222H16.3553C15.791 19.4222 15.333 19.8801 15.333 20.4444Z" stroke="#3C3C3C" stroke-width="2"/>
<path d="M8.17773 13.2888H38.8444" stroke="#3C3C3C" stroke-width="2" stroke-linejoin="round"/>
<path d="M8.17773 9.19995H38.8444" stroke="#3C3C3C" stroke-width="2" stroke-linejoin="round"/>
<path d="M23.5108 24.8093C26.237 27.1635 27.5997 29.4563 27.5997 31.6868C27.5997 33.9449 25.7689 35.7757 23.5108 35.7757C21.2527 35.7757 19.4219 33.9173 19.4219 31.6868C19.4219 29.4563 20.7845 27.1635 23.5108 24.8093Z" stroke="#3C3C3C" stroke-width="2"/>
<path d="M23.5109 31.4333C24.7816 31.4333 25.8109 32.4627 25.8109 33.7333C25.8109 35.004 24.7816 36.0333 23.5109 36.0333C22.2403 36.0333 21.2109 35.004 21.2109 33.7333C21.2109 32.4627 22.2403 31.4333 23.5109 31.4333Z" stroke="#3C3C3C" stroke-width="2" stroke-linejoin="round"/>
</svg>
