<svg width="46" height="46" viewBox="0 0 46 46" fill="none" xmlns="http://www.w3.org/2000/svg">
<g clip-path="url(#clip0_757_29026)">
<path d="M37.8224 24.0232V26.0677H9.2002V15.8454C9.2002 15.5899 9.29628 15.3435 9.46597 15.1565L9.55797 15.0675L16.0532 9.50562C16.7738 8.8882 17.8165 8.85242 18.575 9.39726L18.714 9.50562L25.199 15.0686C25.3932 15.2352 25.5169 15.4672 25.5476 15.7177L25.5558 15.8454V24.0232M17.3831 11.0584L11.2446 16.3146V24.0232H14.3113V18.9121C14.3113 18.3877 14.7059 17.9553 15.2139 17.897L15.3335 17.8899H19.4224C19.9468 17.8899 20.3792 18.2834 20.4375 18.7915L20.4446 18.9121V24.0232H23.5113V16.3146L17.3831 11.0584ZM18.4002 19.9343H16.3558V24.0232H18.4002V19.9343Z" fill="#3C3C3C"/>
<path d="M31.6998 25.5933H33.7719L33.7596 8.68884H31.6865L31.6998 25.5933Z" fill="#3C3C3C"/>
<path d="M32.0085 13.6282C31.066 14.4409 29.4887 15.0685 27.9134 15.1237L27.6211 15.1288V13.0844C29.9865 13.0844 31.2428 11.778 31.6415 9.80204L31.663 9.67018C31.6773 9.55978 31.6854 9.4412 31.6895 9.32671L31.6854 9.23164L31.6895 8.9536L31.6875 8.68884" fill="#3C3C3C"/>
<path d="M33.3758 13.5679C34.3765 14.4307 36.0898 15.1278 37.805 15.1278V13.0834L37.5648 13.0803C35.3548 12.9944 34.169 11.7105 33.7846 9.80204L33.7335 9.57715H32.9434L33.3758 13.5679Z" fill="#3C3C3C"/>
<path d="M33.4294 15.3292L31.6886 15.4192L31.6579 15.6073C31.2919 16.9484 30.0673 17.8889 27.6201 17.8889V19.9333L27.9329 19.9292C29.4898 19.8832 30.744 19.4938 31.6896 18.8559L33.0461 17.5403L33.4294 15.3292Z" fill="#3C3C3C"/>
<path d="M33.7334 18.8558C34.7413 19.5366 36.1009 19.9333 37.8029 19.9333V17.8888L37.5361 17.8847C35.2657 17.8183 34.1086 16.9003 33.7559 15.6093L32.8369 15.7278L31.9844 17.6772L33.7334 18.8558Z" fill="#3C3C3C"/>
<mask id="mask0_757_29026" style="mask-type:alpha" maskUnits="userSpaceOnUse" x="-18" y="-19" width="83" height="83">
<path d="M64.3999 -18.4H-17.3779V63.3778H64.3999V-18.4Z" fill="#F2DDBB"/>
</mask>
<g mask="url(#mask0_757_29026)">
<path d="M5.06933 28.4944C6.2132 28.4954 7.31924 28.9145 8.15236 29.6965C8.55102 30.0696 9.07338 30.2935 9.62844 30.3385L9.83902 30.3467V32.3911C8.69515 32.3911 7.58911 31.971 6.75498 31.189C6.30724 30.7688 5.70209 30.5388 5.06933 30.5388C4.43555 30.5388 3.8304 30.7688 3.38267 31.189C2.54853 31.971 1.44249 32.3911 0.29862 32.3911C-0.76347 32.3911 -1.79387 32.0292 -2.60245 31.3515L-2.78543 31.189C-3.23418 30.7688 -3.83831 30.5388 -4.47209 30.5388C-5.10587 30.5388 -5.71 30.7688 -6.15774 31.189C-6.99187 31.971 -8.09894 32.3911 -9.2428 32.3911C-10.3867 32.3911 -11.4927 31.971 -12.3268 31.189C-12.7746 30.7688 -13.3787 30.5388 -14.0125 30.5388C-14.6463 30.5388 -15.2504 30.7688 -15.6992 31.189C-16.474 31.9147 -17.4829 32.3298 -18.5389 32.385L-18.7832 32.3911V30.3467C-18.22 30.3467 -17.6802 30.1647 -17.2519 29.8294L-17.0965 29.6965C-16.2624 28.9145 -15.1564 28.4954 -14.0125 28.4944C-12.8686 28.4954 -11.7626 28.9145 -10.9284 29.6965C-10.4807 30.1167 -9.87658 30.3467 -9.2428 30.3467C-8.60903 30.3467 -8.00489 30.1177 -7.55614 29.6965C-6.722 28.9155 -5.61596 28.4954 -4.47209 28.4944C-3.32822 28.4954 -2.22218 28.9145 -1.38805 29.6965C-0.939291 30.1167 -0.335157 30.3467 0.29862 30.3467C0.932398 30.3467 1.53653 30.1167 1.98426 29.6965C2.8184 28.9145 3.92444 28.4954 5.06933 28.4944Z" fill="#3C3C3C"/>
<path d="M32.7969 28.4944C33.9407 28.4954 35.0468 28.9145 35.8799 29.6965C36.2786 30.0696 36.8009 30.2935 37.356 30.3385L37.5666 30.3467V32.3911C36.4227 32.3911 35.3166 31.971 34.4825 31.189C34.0348 30.7688 33.4296 30.5388 32.7969 30.5388C32.1631 30.5388 31.5579 30.7688 31.1102 31.189C30.2761 31.971 29.17 32.3911 28.0262 32.3911C26.9641 32.3911 25.9337 32.0292 25.1251 31.3515L24.9421 31.189C24.4934 30.7688 23.8892 30.5388 23.2554 30.5388C22.6217 30.5388 22.0175 30.7688 21.5698 31.189C20.7357 31.971 19.6286 32.3911 18.4847 32.3911C17.3409 32.3911 16.2348 31.971 15.4007 31.189C14.953 30.7688 14.3488 30.5388 13.715 30.5388C13.0813 30.5388 12.4771 30.7688 12.0284 31.189C11.2535 31.9147 10.2446 32.3298 9.18865 32.385L8.94434 32.3911V30.3467C9.50758 30.3467 10.0473 30.1647 10.4756 29.8294L10.631 29.6965C11.4651 28.9145 12.5712 28.4954 13.715 28.4944C14.8589 28.4954 15.965 28.9145 16.7991 29.6965C17.2468 30.1167 17.851 30.3467 18.4847 30.3467C19.1185 30.3467 19.7226 30.1177 20.1714 29.6965C21.0055 28.9155 22.1116 28.4954 23.2554 28.4944C24.3993 28.4954 25.5054 28.9145 26.3395 29.6965C26.7882 30.1167 27.3924 30.3467 28.0262 30.3467C28.6599 30.3467 29.2641 30.1167 29.7118 29.6965C30.5459 28.9145 31.652 28.4954 32.7969 28.4944Z" fill="#3C3C3C"/>
<path d="M60.9082 28.4944C62.0521 28.4954 63.1581 28.9145 63.9912 29.6965C64.3899 30.0696 64.9122 30.2935 65.4673 30.3385L65.6779 30.3467V32.3911C64.534 32.3911 63.428 31.971 62.5938 31.189C62.1461 30.7688 61.541 30.5388 60.9082 30.5388C60.2744 30.5388 59.6693 30.7688 59.2215 31.189C58.3874 31.971 57.2814 32.3911 56.1375 32.3911C55.0754 32.3911 54.045 32.0292 53.2364 31.3515L53.0534 31.189C52.6047 30.7688 52.0006 30.5388 51.3668 30.5388C50.733 30.5388 50.1289 30.7688 49.6811 31.189C48.847 31.971 47.7399 32.3911 46.5961 32.3911C45.4522 32.3911 44.3462 31.971 43.512 31.189C43.0643 30.7688 42.4602 30.5388 41.8264 30.5388C41.1926 30.5388 40.5885 30.7688 40.1397 31.189C39.3649 31.9147 38.3559 32.3298 37.3 32.385L37.0557 32.3911V30.3467C37.6189 30.3467 38.1586 30.1647 38.587 29.8294L38.7423 29.6965C39.5765 28.9145 40.6825 28.4954 41.8264 28.4944C42.9702 28.4954 44.0763 28.9145 44.9104 29.6965C45.3582 30.1167 45.9623 30.3467 46.5961 30.3467C47.2298 30.3467 47.834 30.1177 48.2827 29.6965C49.1169 28.9155 50.2229 28.4954 51.3668 28.4944C52.5106 28.4954 53.6167 28.9145 54.4508 29.6965C54.8996 30.1167 55.5037 30.3467 56.1375 30.3467C56.7713 30.3467 57.3754 30.1167 57.8231 29.6965C58.6573 28.9145 59.7633 28.4954 60.9082 28.4944Z" fill="#3C3C3C"/>
</g>
<mask id="mask1_757_29026" style="mask-type:alpha" maskUnits="userSpaceOnUse" x="-18" y="-19" width="83" height="83">
<path d="M64.3999 -18.4H-17.3779V63.3778H64.3999V-18.4Z" fill="#F2DDBB"/>
</mask>
<g mask="url(#mask1_757_29026)">
<path d="M5.06933 33.2222C6.2132 33.2232 7.31924 33.6423 8.15236 34.4243C8.55102 34.7974 9.07338 35.0213 9.62844 35.0663L9.83902 35.0744V37.1189C8.69515 37.1189 7.58911 36.6987 6.75498 35.9167C6.30724 35.4966 5.70209 35.2666 5.06933 35.2666C4.43555 35.2666 3.8304 35.4966 3.38267 35.9167C2.54853 36.6987 1.44249 37.1189 0.29862 37.1189C-0.76347 37.1189 -1.79387 36.757 -2.60245 36.0793L-2.78543 35.9167C-3.23418 35.4966 -3.83831 35.2666 -4.47209 35.2666C-5.10587 35.2666 -5.71 35.4966 -6.15774 35.9167C-6.99187 36.6987 -8.09894 37.1189 -9.2428 37.1189C-10.3867 37.1189 -11.4927 36.6987 -12.3268 35.9167C-12.7746 35.4966 -13.3787 35.2666 -14.0125 35.2666C-14.6463 35.2666 -15.2504 35.4966 -15.6992 35.9167C-16.474 36.6425 -17.4829 37.0575 -18.5389 37.1127L-18.7832 37.1189V35.0744C-18.22 35.0744 -17.6802 34.8925 -17.2519 34.5572L-17.0965 34.4243C-16.2624 33.6423 -15.1564 33.2232 -14.0125 33.2222C-12.8686 33.2232 -11.7626 33.6423 -10.9284 34.4243C-10.4807 34.8444 -9.87658 35.0744 -9.2428 35.0744C-8.60903 35.0744 -8.00489 34.8455 -7.55614 34.4243C-6.722 33.6433 -5.61596 33.2232 -4.47209 33.2222C-3.32822 33.2232 -2.22218 33.6423 -1.38805 34.4243C-0.939291 34.8444 -0.335157 35.0744 0.29862 35.0744C0.932398 35.0744 1.53653 34.8444 1.98426 34.4243C2.8184 33.6423 3.92444 33.2232 5.06933 33.2222Z" fill="#3C3C3C"/>
<path d="M32.7969 33.2222C33.9407 33.2232 35.0468 33.6423 35.8799 34.4243C36.2786 34.7974 36.8009 35.0213 37.356 35.0663L37.5666 35.0744V37.1189C36.4227 37.1189 35.3166 36.6987 34.4825 35.9167C34.0348 35.4966 33.4296 35.2666 32.7969 35.2666C32.1631 35.2666 31.5579 35.4966 31.1102 35.9167C30.2761 36.6987 29.17 37.1189 28.0262 37.1189C26.9641 37.1189 25.9337 36.757 25.1251 36.0793L24.9421 35.9167C24.4934 35.4966 23.8892 35.2666 23.2554 35.2666C22.6217 35.2666 22.0175 35.4966 21.5698 35.9167C20.7357 36.6987 19.6286 37.1189 18.4847 37.1189C17.3409 37.1189 16.2348 36.6987 15.4007 35.9167C14.953 35.4966 14.3488 35.2666 13.715 35.2666C13.0813 35.2666 12.4771 35.4966 12.0284 35.9167C11.2535 36.6425 10.2446 37.0575 9.18865 37.1127L8.94434 37.1189V35.0744C9.50758 35.0744 10.0473 34.8925 10.4756 34.5572L10.631 34.4243C11.4651 33.6423 12.5712 33.2232 13.715 33.2222C14.8589 33.2232 15.965 33.6423 16.7991 34.4243C17.2468 34.8444 17.851 35.0744 18.4847 35.0744C19.1185 35.0744 19.7226 34.8455 20.1714 34.4243C21.0055 33.6433 22.1116 33.2232 23.2554 33.2222C24.3993 33.2232 25.5054 33.6423 26.3395 34.4243C26.7882 34.8444 27.3924 35.0744 28.0262 35.0744C28.6599 35.0744 29.2641 34.8444 29.7118 34.4243C30.5459 33.6423 31.652 33.2232 32.7969 33.2222Z" fill="#3C3C3C"/>
<path d="M60.9082 33.2222C62.0521 33.2232 63.1581 33.6423 63.9912 34.4243C64.3899 34.7974 64.9122 35.0213 65.4673 35.0663L65.6779 35.0744V37.1189C64.534 37.1189 63.428 36.6987 62.5938 35.9167C62.1461 35.4966 61.541 35.2666 60.9082 35.2666C60.2744 35.2666 59.6693 35.4966 59.2215 35.9167C58.3874 36.6987 57.2814 37.1189 56.1375 37.1189C55.0754 37.1189 54.045 36.757 53.2364 36.0793L53.0534 35.9167C52.6047 35.4966 52.0006 35.2666 51.3668 35.2666C50.733 35.2666 50.1289 35.4966 49.6811 35.9167C48.847 36.6987 47.7399 37.1189 46.5961 37.1189C45.4522 37.1189 44.3462 36.6987 43.512 35.9167C43.0643 35.4966 42.4602 35.2666 41.8264 35.2666C41.1926 35.2666 40.5885 35.4966 40.1397 35.9167C39.3649 36.6425 38.3559 37.0575 37.3 37.1127L37.0557 37.1189V35.0744C37.6189 35.0744 38.1586 34.8925 38.587 34.5572L38.7423 34.4243C39.5765 33.6423 40.6825 33.2232 41.8264 33.2222C42.9702 33.2232 44.0763 33.6423 44.9104 34.4243C45.3582 34.8444 45.9623 35.0744 46.5961 35.0744C47.2298 35.0744 47.834 34.8455 48.2827 34.4243C49.1169 33.6433 50.2229 33.2232 51.3668 33.2222C52.5106 33.2232 53.6167 33.6423 54.4508 34.4243C54.8996 34.8444 55.5037 35.0744 56.1375 35.0744C56.7713 35.0744 57.3754 34.8444 57.8231 34.4243C58.6573 33.6423 59.7633 33.2232 60.9082 33.2222Z" fill="#3C3C3C"/>
</g>
</g>
<defs>
<clipPath id="clip0_757_29026">
<rect width="46" height="46" fill="white"/>
</clipPath>
</defs>
</svg>
