<svg width="46" height="46" viewBox="0 0 46 46" fill="none" xmlns="http://www.w3.org/2000/svg">
<path d="M8.17773 14.8222C8.17773 12.9668 8.8984 11.1841 10.1874 9.85009C11.4764 8.51609 13.2336 7.73409 15.088 7.67071L15.3333 7.66663H17.3777C19.1901 7.66765 20.934 8.3556 22.2588 9.59147C23.5836 10.8284 24.3902 12.5212 24.5159 14.3284L24.5292 14.5738L24.5394 15.0031C24.5834 15.7524 24.9013 16.4598 25.4328 16.9913C25.9634 17.5219 26.6708 17.8398 27.42 17.8837L27.6 17.8888H30.6666C32.7908 17.8888 34.8322 18.7158 36.3584 20.194C37.8835 21.6731 38.7739 23.6879 38.8403 25.8111L38.8444 26.0666V34.2444C38.8444 34.4948 38.7524 34.7361 38.5858 34.9232C38.4202 35.1102 38.1902 35.2298 37.9418 35.2595L37.8222 35.2666H36.8V38.3333H34.7555V35.2666H12.2666V38.3333H10.2222V35.2666H9.19996C8.94951 35.2666 8.70827 35.1746 8.5212 35.008C8.33413 34.8424 8.21453 34.6124 8.18489 34.364L8.17773 34.2444V14.8222ZM12.2666 27.0888H10.2222V33.2222H36.8V27.0888H34.7555M16.3555 27.0888H14.3111H16.3555ZM20.4444 27.0888H18.4H20.4444ZM24.5333 27.0888H22.4888H24.5333ZM28.6222 27.0888H26.5777H28.6222ZM32.7111 27.0888H30.6666H32.7111ZM17.3777 9.71107H15.3333C14.0167 9.71107 12.7501 10.2201 11.7984 11.1309C10.8478 12.0417 10.2845 13.2848 10.2273 14.6004L10.2222 14.8222V25.0444H36.7131L36.6967 24.9401C36.4483 23.6153 35.7716 22.4081 34.7688 21.5065C33.767 20.6049 32.4954 20.058 31.1512 19.9517L30.8956 19.9374L30.6666 19.9333H27.6C24.8512 19.9333 22.6095 17.7641 22.494 15.0614L22.4858 14.63C22.4357 13.3083 21.8765 12.0581 20.9238 11.1401C19.9711 10.2232 18.7005 9.71107 17.3777 9.71107Z" fill="#3C3C3C"/>
<path d="M14.3113 31.1777H12.2607V25.488H14.3113V31.1777Z" fill="#3C3C3C"/>
<path d="M18.4002 31.1777H16.3496V25.488H18.4002V31.1777Z" fill="#3C3C3C"/>
<path d="M22.4891 31.1777H20.4385V25.488H22.4891V31.1777Z" fill="#3C3C3C"/>
<path d="M26.5779 31.1777H24.5273V25.488H26.5779V31.1777Z" fill="#3C3C3C"/>
<path d="M30.6668 31.1777H28.6162V25.488H30.6668V31.1777Z" fill="#3C3C3C"/>
<path d="M34.7557 31.1777H32.7051V25.488H34.7557V31.1777Z" fill="#3C3C3C"/>
</svg>
