<svg width="46" height="46" viewBox="0 0 46 46" fill="none" xmlns="http://www.w3.org/2000/svg">
<path d="M26.8241 34.3805L32.0609 36.2869C33.7548 36.9033 35.6121 36.1612 36.4381 34.6166L37.4051 34.9693C36.4105 36.981 34.0798 37.9961 31.9107 37.3153L31.7062 37.2458L24.8001 34.7331L24.7909 34.7291L24.7817 34.725L8.17773 28.6816L8.52733 27.7207L26.8241 34.3805Z" fill="#3C3C3C"/>
<path d="M26.8241 34.3805L32.0609 36.2869C33.7548 36.9033 35.6121 36.1612 36.4381 34.6166L37.4051 34.9693C36.4105 36.981 34.0798 37.9961 31.9107 37.3153L31.7062 37.2458L24.8001 34.7331L24.7909 34.7291L24.7817 34.725L8.17773 28.6816L8.52733 27.7207L26.8241 34.3805Z" stroke="#3C3C3C"/>
<path d="M25.4161 33.4604L29.919 27.3762C30.3504 26.7945 30.3105 25.9992 29.8495 25.4636L29.8383 25.4503L29.827 25.439L29.736 25.347L29.7248 25.3358L29.7136 25.3246L26.9852 22.8682C26.8166 22.7148 26.7706 22.4726 26.8646 22.2712L26.9106 22.1925L29.7463 17.9359L30.9709 18.7527V18.7639L30.975 18.7966L31.0077 19.0481L31.0087 19.0614C31.022 19.1422 31.0353 19.2188 31.0506 19.2863C31.2878 20.3146 31.8336 21.1222 32.7291 21.667C33.5632 22.173 34.6621 22.4286 36.0166 22.4787V23.5009C32.9877 23.3915 31.1079 22.2906 30.3197 20.3586L29.9558 19.4672L29.4212 20.2686L28.2436 22.0361L27.9983 22.403L28.3264 22.7005L30.3974 24.565C31.3328 25.4074 31.5096 26.7986 30.839 27.8433L30.7368 27.9905L26.1869 34.0339M21.0594 31.9015L24.354 27.5919L24.6505 27.2044L24.2774 26.8916L21.2097 24.3023C20.716 23.8853 20.4389 23.2944 20.4083 22.6831L21.5511 23.1125C21.5992 23.2096 21.6595 23.3026 21.732 23.3864L21.7453 23.4018L21.7596 23.415L21.8404 23.4938L21.8547 23.5091L21.869 23.5203L25.6819 26.7393C25.871 26.8978 25.916 27.1656 25.7995 27.3762L25.7494 27.4508L21.7883 32.4648M18.0674 17.063L18.4589 17.2091L18.6797 16.8565L19.5762 15.4243C19.7408 15.1616 19.9227 14.9102 20.122 14.673C22.0632 12.3607 25.2454 11.7034 27.8776 12.8575L28.7292 13.2317L28.5891 12.3137C28.4675 11.5194 28.6126 10.6812 29.0583 9.93807C30.0764 8.24425 32.2742 7.69634 33.968 8.71345C35.6619 9.73158 36.2098 11.9283 35.1927 13.6222C34.7224 14.4031 34.0038 14.9398 33.1973 15.1933L33.0327 15.2454L32.9336 15.3865L32.4582 16.0581L31.5955 15.4836L32.3713 14.3244C33.1482 14.2488 33.8822 13.8174 34.3156 13.0957C35.0424 11.8864 34.6519 10.3173 33.4416 9.59051C32.2323 8.86269 30.6622 9.2542 29.9354 10.4645C29.504 11.1811 29.4662 12.0244 29.7575 12.743L28.6862 14.5258C26.3106 12.6562 22.8626 12.9996 20.9051 15.3313C20.7926 15.4652 20.6863 15.6032 20.5872 15.7463L20.58 15.7566L20.4492 15.9569L20.443 15.9661L19.7673 17.0476L19.4351 17.5761L20.0208 17.7969" fill="#3C3C3C"/>
<path d="M25.4161 33.4604L29.919 27.3762C30.3504 26.7945 30.3105 25.9992 29.8495 25.4636L29.8383 25.4503L29.827 25.439L29.736 25.347L29.7248 25.3358L29.7136 25.3246L26.9852 22.8682C26.8166 22.7148 26.7706 22.4726 26.8646 22.2712L26.9106 22.1925L29.7463 17.9359L30.9709 18.7527V18.7639L30.975 18.7966L31.0077 19.0481L31.0087 19.0614C31.022 19.1422 31.0353 19.2188 31.0506 19.2863C31.2878 20.3146 31.8336 21.1222 32.7291 21.667C33.5632 22.173 34.6621 22.4286 36.0166 22.4787V23.5009C32.9877 23.3915 31.1079 22.2906 30.3197 20.3586L29.9558 19.4672L29.4212 20.2686L28.2436 22.0361L27.9983 22.403L28.3264 22.7005L30.3974 24.565C31.3328 25.4074 31.5096 26.7986 30.839 27.8433L30.7368 27.9905L26.1869 34.0339M21.0594 31.9015L24.354 27.5918L24.6505 27.2044L24.2774 26.8916L21.2097 24.3023C20.716 23.8853 20.4389 23.2944 20.4083 22.6831L21.5511 23.1125C21.5992 23.2096 21.6595 23.3026 21.732 23.3864L21.7453 23.4018L21.7596 23.415L21.8404 23.4938L21.8547 23.5091L21.869 23.5203L25.6819 26.7393C25.871 26.8978 25.916 27.1656 25.7995 27.3762L25.7494 27.4508L21.7883 32.4648M18.0674 17.063L18.4589 17.2091L18.6797 16.8565L19.5762 15.4243C19.7408 15.1616 19.9227 14.9102 20.122 14.673C22.0632 12.3607 25.2454 11.7034 27.8776 12.8575L28.7292 13.2317L28.5891 12.3137C28.4675 11.5194 28.6126 10.6812 29.0583 9.93807C30.0764 8.24425 32.2742 7.69634 33.968 8.71345C35.6619 9.73158 36.2098 11.9283 35.1927 13.6222C34.7224 14.4031 34.0038 14.9398 33.1973 15.1933L33.0327 15.2454L32.9336 15.3865L32.4582 16.0581L31.5955 15.4836L32.3713 14.3244C33.1482 14.2488 33.8822 13.8174 34.3156 13.0957C35.0424 11.8864 34.6519 10.3173 33.4416 9.59051C32.2323 8.86269 30.6622 9.2542 29.9354 10.4645C29.504 11.1811 29.4662 12.0244 29.7575 12.743L28.6862 14.5258C26.3106 12.6562 22.8626 12.9996 20.9051 15.3313C20.7926 15.4652 20.6863 15.6032 20.5872 15.7463L20.58 15.7566L20.4492 15.9569L20.443 15.9661L19.7673 17.0476L19.4351 17.5761L20.0208 17.7969" stroke="#3C3C3C"/>
<path d="M8.79883 14.3735L25.1605 20.511" stroke="#3C3C3C" stroke-width="2"/>
</svg>
