<svg width="46" height="46" viewBox="0 0 46 46" fill="none" xmlns="http://www.w3.org/2000/svg">
<path d="M28.6285 14.5441C28.6285 14.6147 28.6274 14.6852 28.6264 14.7557L28.6254 14.8375V14.8498V14.862L28.6305 15.1309V15.1401V15.1493L28.6591 15.6359L28.6612 15.689L28.6765 15.7412C28.884 16.5017 29.3307 17.162 30.0555 17.6343C30.725 18.0698 31.6041 18.3264 32.6949 18.3856V19.4089C31.3159 19.3373 30.2293 18.9775 29.4207 18.4316L28.6233 17.8929V18.8548V21.9777V22.4888H29.1345H30.1567C30.3192 22.4888 30.4705 22.5665 30.5666 22.6943L30.6146 22.771L37.762 36.0466C37.9337 36.3645 37.7293 36.7478 37.3858 36.7948L37.2989 36.8H8.69002C8.32917 36.8 8.08793 36.4381 8.20957 36.114L8.24739 36.0343L15.3958 22.7577C15.4796 22.6023 15.6166 22.5164 15.7669 22.495L15.8057 22.4888H27.09H27.6011V21.9777L27.6032 18.8559V17.894L26.8058 18.4316C25.9973 18.9775 24.9117 19.3373 23.5327 19.4089V18.3856C24.5794 18.3284 25.4299 18.0902 26.0882 17.6864C26.861 17.2132 27.3364 16.5324 27.551 15.7412L27.5643 15.6941L27.5684 15.6461L27.5837 15.458V15.4498V15.4416L27.597 15.1432V15.1288L27.6011 14.8794V14.8712L27.6032 13.757V12.6408L26.7578 13.3696C25.9584 14.0586 24.8922 14.5104 23.5327 14.6014V13.5761C24.5794 13.4923 25.4401 13.1488 26.1056 12.5702C26.8713 11.9037 27.3282 10.9704 27.5439 9.90324L27.5459 9.89404L27.548 9.88484L27.5684 9.75297L27.5705 9.7448V9.73764C27.5878 9.60782 27.5991 9.47288 27.6032 9.34613V9.32466V9.30422L27.5991 9.22346V9.19995H28.6233V9.42075H28.6285C28.6336 9.52808 28.6438 9.63542 28.6571 9.73764V9.7448L28.6591 9.75297L28.6806 9.88484L28.6826 9.89404L28.6837 9.90324C28.8912 10.9336 29.3236 11.8393 30.0442 12.5007C30.7179 13.1192 31.6052 13.4892 32.6949 13.5761V14.6014C31.3343 14.5104 30.2671 14.0565 29.4677 13.3676L28.6233 12.6377V13.755V14.0903V14.5441H28.6285ZM15.3345 27.0531L14.3725 26.8108L9.95246 35.0244L9.54562 35.7777H10.4022H14.8233H15.3345V35.2666V27.0531ZM35.601 35.7767H36.4556L36.0498 35.0233L29.9962 23.7789L29.851 23.51H29.5464L17.5578 23.5111H16.7012L17.106 24.2644L23.1606 35.5089L23.3057 35.7777H23.6114L35.601 35.7767ZM17.3176 26.8139L16.3567 27.0561V35.2666V35.7777H16.8678H21.2899H22.1445L21.7387 35.0244L17.3176 26.8139ZM14.8233 11.2444C16.7993 11.2444 18.4011 12.8462 18.4011 14.8222C18.4011 16.7981 16.7993 18.4 14.8233 18.4C12.8474 18.4 11.2456 16.7981 11.2456 14.8222C11.2456 12.8462 12.8474 11.2444 14.8233 11.2444ZM14.8233 12.2666C13.4117 12.2666 12.2678 13.4105 12.2678 14.8222C12.2678 16.2339 13.4117 17.3777 14.8233 17.3777C16.235 17.3777 17.3789 16.2339 17.3789 14.8222C17.3789 13.4105 16.235 12.2666 14.8233 12.2666Z" fill="#3C3C3C"/>
<path d="M28.6285 14.5441C28.6285 14.6147 28.6274 14.6852 28.6264 14.7557L28.6254 14.8375V14.8498V14.862L28.6305 15.1309V15.1401V15.1493L28.6591 15.6359L28.6612 15.689L28.6765 15.7412C28.884 16.5017 29.3307 17.162 30.0555 17.6343C30.725 18.0698 31.6041 18.3264 32.6949 18.3856V19.4089C31.3159 19.3373 30.2293 18.9775 29.4207 18.4316L28.6233 17.8929V18.8548V21.9777V22.4888H29.1345H30.1567C30.3192 22.4888 30.4705 22.5665 30.5666 22.6943L30.6146 22.771L37.762 36.0466C37.9337 36.3645 37.7293 36.7478 37.3858 36.7948L37.2989 36.8H8.69002C8.32917 36.8 8.08793 36.4381 8.20957 36.114L8.24739 36.0343L15.3958 22.7577C15.4796 22.6023 15.6166 22.5164 15.7669 22.495L15.8057 22.4888H27.09H27.6011V21.9777L27.6032 18.8559V17.894L26.8058 18.4316C25.9973 18.9775 24.9117 19.3373 23.5327 19.4089V18.3856C24.5794 18.3284 25.4299 18.0902 26.0882 17.6864C26.861 17.2132 27.3364 16.5324 27.551 15.7412L27.5643 15.6941L27.5684 15.6461L27.5837 15.458V15.4498V15.4416L27.597 15.1432V15.1288L27.6011 14.8794V14.8712L27.6032 13.757V12.6408L26.7578 13.3696C25.9584 14.0586 24.8922 14.5104 23.5327 14.6014V13.5761C24.5794 13.4923 25.4401 13.1488 26.1056 12.5702C26.8713 11.9037 27.3282 10.9704 27.5439 9.90324L27.5459 9.89404L27.548 9.88484L27.5684 9.75297L27.5705 9.7448V9.73764C27.5878 9.60782 27.5991 9.47288 27.6032 9.34613V9.32466V9.30422L27.5991 9.22346V9.19995H28.6233V9.42075H28.6285C28.6336 9.52808 28.6438 9.63542 28.6571 9.73764V9.7448L28.6591 9.75297L28.6806 9.88484L28.6826 9.89404L28.6837 9.90324C28.8912 10.9336 29.3236 11.8393 30.0442 12.5007C30.7179 13.1192 31.6052 13.4892 32.6949 13.5761V14.6014C31.3343 14.5104 30.2671 14.0565 29.4677 13.3676L28.6233 12.6377V13.755V14.0903V14.5441H28.6285ZM15.3345 27.0531L14.3725 26.8108L9.95246 35.0244L9.54562 35.7777H10.4022H14.8233H15.3345V35.2666V27.0531ZM35.601 35.7767H36.4556L36.0498 35.0233L29.9962 23.7789L29.851 23.51H29.5464L17.5578 23.5111H16.7012L17.106 24.2644L23.1606 35.5089L23.3057 35.7777H23.6114L35.601 35.7767ZM17.3176 26.8139L16.3567 27.0561V35.2666V35.7777H16.8678H21.2899H22.1445L21.7387 35.0244L17.3176 26.8139ZM14.8233 11.2444C16.7993 11.2444 18.4011 12.8462 18.4011 14.8222C18.4011 16.7981 16.7993 18.4 14.8233 18.4C12.8474 18.4 11.2456 16.7981 11.2456 14.8222C11.2456 12.8462 12.8474 11.2444 14.8233 11.2444ZM14.8233 12.2666C13.4117 12.2666 12.2678 13.4105 12.2678 14.8222C12.2678 16.2339 13.4117 17.3777 14.8233 17.3777C16.235 17.3777 17.3789 16.2339 17.3789 14.8222C17.3789 13.4105 16.235 12.2666 14.8233 12.2666Z" stroke="#3C3C3C"/>
</svg>
