<svg width="46" height="46" viewBox="0 0 46 46" fill="none" xmlns="http://www.w3.org/2000/svg">
<path d="M24.9173 42.1654H9.58398C5.75065 42.1654 3.83398 40.2487 3.83398 36.4154V21.082C3.83398 17.2487 5.75065 15.332 9.58398 15.332H19.1673V36.4154C19.1673 40.2487 21.084 42.1654 24.9173 42.1654Z" stroke="#312D2A" stroke-width="2" stroke-miterlimit="10" stroke-linecap="round" stroke-linejoin="round"/>
<path opacity="0.4" d="M19.3781 7.66797C19.2248 8.24297 19.1673 8.87547 19.1673 9.58464V15.3346H9.58398V11.5013C9.58398 9.39297 11.309 7.66797 13.4173 7.66797H19.3781Z" stroke="#312D2A" stroke-width="2" stroke-miterlimit="10" stroke-linecap="round" stroke-linejoin="round"/>
<path opacity="0.4" d="M26.834 15.332V24.9154" stroke="#312D2A" stroke-width="2" stroke-miterlimit="10" stroke-linecap="round" stroke-linejoin="round"/>
<path opacity="0.4" d="M34.5 15.332V24.9154" stroke="#312D2A" stroke-width="2" stroke-miterlimit="10" stroke-linecap="round" stroke-linejoin="round"/>
<path d="M32.584 32.582H28.7507C27.6965 32.582 26.834 33.4445 26.834 34.4987V42.1654H34.5007V34.4987C34.5007 33.4445 33.6382 32.582 32.584 32.582Z" stroke="#312D2A" stroke-width="2" stroke-miterlimit="10" stroke-linecap="round" stroke-linejoin="round"/>
<path opacity="0.4" d="M11.5 24.918V32.5846" stroke="#312D2A" stroke-width="2" stroke-miterlimit="10" stroke-linecap="round" stroke-linejoin="round"/>
<path d="M19.166 36.4154V9.58203C19.166 5.7487 21.0827 3.83203 24.916 3.83203H36.416C40.2493 3.83203 42.166 5.7487 42.166 9.58203V36.4154C42.166 40.2487 40.2493 42.1654 36.416 42.1654H24.916C21.0827 42.1654 19.166 40.2487 19.166 36.4154Z" stroke="#312D2A" stroke-width="2" stroke-miterlimit="10" stroke-linecap="round" stroke-linejoin="round"/>
</svg>
