<svg width="46" height="46" viewBox="0 0 46 46" fill="none" xmlns="http://www.w3.org/2000/svg">
<path d="M1.91602 42.168H44.0827" stroke="#312D2A" stroke-width="2" stroke-miterlimit="10" stroke-linecap="round" stroke-linejoin="round"/>
<path opacity="0.4" d="M37.9121 42.1851V33.6367" stroke="#312D2A" stroke-width="2" stroke-miterlimit="10" stroke-linecap="round" stroke-linejoin="round"/>
<path d="M37.9491 20.8711C35.6108 20.8711 33.7324 22.7495 33.7324 25.0878V29.4385C33.7324 31.7769 35.6108 33.6552 37.9491 33.6552C40.2874 33.6552 42.1658 31.7769 42.1658 29.4385V25.0878C42.1658 22.7495 40.2874 20.8711 37.9491 20.8711Z" stroke="#312D2A" stroke-width="2" stroke-miterlimit="10" stroke-linecap="round" stroke-linejoin="round"/>
<path d="M4.02539 42.167V11.5579C4.02539 7.7054 5.94216 5.76953 9.75632 5.76953H21.6971C25.5113 5.76953 27.4087 7.7054 27.4087 11.5579V42.167" stroke="#312D2A" stroke-width="2" stroke-miterlimit="10" stroke-linecap="round" stroke-linejoin="round"/>
<path opacity="0.4" d="M11.1172 15.8125H20.6047" stroke="#312D2A" stroke-width="2" stroke-miterlimit="10" stroke-linecap="round" stroke-linejoin="round"/>
<path opacity="0.4" d="M11.1172 23H20.6047" stroke="#312D2A" stroke-width="2" stroke-miterlimit="10" stroke-linecap="round" stroke-linejoin="round"/>
<path opacity="0.4" d="M15.8125 42.168V34.9805" stroke="#312D2A" stroke-width="2" stroke-miterlimit="10" stroke-linecap="round" stroke-linejoin="round"/>
</svg>
