<svg width="38" height="38" viewBox="0 0 38 38" fill="none" xmlns="http://www.w3.org/2000/svg">
<path fill-rule="evenodd" clip-rule="evenodd" d="M32.0872 19.7358H6.75391V18.0469H32.0872V19.7358Z" fill="#3C3C3C"/>
<path fill-rule="evenodd" clip-rule="evenodd" d="M10.1303 18.8906V30.7128H8.44141V18.8906H10.1303Z" fill="#3C3C3C"/>
<path fill-rule="evenodd" clip-rule="evenodd" d="M30.3998 18.8906V30.7128H28.7109V18.8906H30.3998Z" fill="#3C3C3C"/>
<path fill-rule="evenodd" clip-rule="evenodd" d="M8.44141 18.8913C8.44141 18.4249 8.81948 18.0469 9.28585 18.0469H29.5525C30.0189 18.0469 30.397 18.4249 30.397 18.8913V25.6469C30.397 27.5125 28.8848 29.0247 27.0192 29.0247H11.8192C9.95357 29.0247 8.44141 27.5125 8.44141 25.6469V18.8913ZM10.1303 19.7358V25.6469C10.1303 26.5797 10.8863 27.3358 11.8192 27.3358H27.0192C27.9521 27.3358 28.7081 26.5797 28.7081 25.6469V19.7358H10.1303Z" fill="#3C3C3C"/>
<path fill-rule="evenodd" clip-rule="evenodd" d="M27.0209 12.9805V18.0471H25.332V12.9805H27.0209Z" fill="#3C3C3C"/>
<path fill-rule="evenodd" clip-rule="evenodd" d="M23.6745 7.68277C23.7781 7.32025 24.1094 7.07031 24.4865 7.07031H27.8642C28.2413 7.07031 28.5726 7.32025 28.6762 7.68277L30.3651 13.5939C30.4379 13.8487 30.3869 14.1228 30.2273 14.3344C30.0677 14.5459 29.8181 14.6703 29.5531 14.6703H22.7976C22.5326 14.6703 22.283 14.5459 22.1234 14.3344C21.9638 14.1228 21.9128 13.8487 21.9856 13.5939L23.6745 7.68277ZM25.1234 8.7592L23.9171 12.9814H28.4336L27.2273 8.7592H25.1234Z" fill="#3C3C3C"/>
<path fill-rule="evenodd" clip-rule="evenodd" d="M10.9766 14.6687C10.9766 14.2023 11.3546 13.8242 11.821 13.8242H16.0432C16.5096 13.8242 16.8877 14.2023 16.8877 14.6687V18.8909C16.8877 19.3573 16.5096 19.7353 16.0432 19.7353H11.821C11.3546 19.7353 10.9766 19.3573 10.9766 18.8909V14.6687ZM12.6655 15.5131V18.0464H15.1988V15.5131H12.6655Z" fill="#3C3C3C"/>
<path fill-rule="evenodd" clip-rule="evenodd" d="M12.5939 10.9492L14.1071 14.3506L12.564 15.0371L11.0508 11.6357L12.5939 10.9492Z" fill="#3C3C3C"/>
</svg>
