<svg width="45" height="50" viewBox="0 0 45 50" fill="none" xmlns="http://www.w3.org/2000/svg">
<path d="M22.6914 13.25C29.3184 13.25 34.6914 19.112 34.6914 24.974C34.6914 29.77 33.0634 34.529 29.8064 39.25H15.5764C12.3194 34.529 10.6914 29.77 10.6914 24.974C10.6914 18.499 16.0644 13.25 22.6914 13.25Z" stroke="#3C3C3C" stroke-width="2"/>
<path d="M22.6914 29.875C24.0034 29.875 25.0664 30.938 25.0664 32.25C25.0664 33.562 24.0034 34.625 22.6914 34.625C21.3794 34.625 20.3164 33.562 20.3164 32.25C20.3164 30.938 21.3794 29.875 22.6914 29.875Z" stroke="#3C3C3C" stroke-width="2"/>
<path d="M30.6914 25.25C30.6914 20.832 27.1094 17.25 22.6914 17.25C18.2734 17.25 14.6914 20.832 14.6914 25.25C25.3584 25.25 30.6914 25.25 30.6914 25.25Z" stroke="#3C3C3C" stroke-width="2"/>
<path d="M22.6914 25.25L25.6914 21.25" stroke="#3C3C3C" stroke-width="2" stroke-linejoin="round"/>
<path d="M22.6914 40.25V44.25" stroke="#3C3C3C" stroke-width="2"/>
</svg>
