<svg width="45" height="45" viewBox="0 0 45 45" fill="none" xmlns="http://www.w3.org/2000/svg">
<path fill-rule="evenodd" clip-rule="evenodd" d="M31 28.6256H37V32.6256C37 33.7299 36.1043 34.6256 35 34.6256H33C31.8957 34.6256 31 33.7299 31 32.6256V28.6256ZM33 30.6256V32.6256H35V30.6256H33Z" fill="#3C3C3C"/>
<path fill-rule="evenodd" clip-rule="evenodd" d="M9 28.6256H15V32.6256C15 33.7299 14.1043 34.6256 13 34.6256H11C9.89572 34.6256 9 33.7299 9 32.6256V28.6256ZM11 30.6256V32.6256H13V30.6256H11Z" fill="#3C3C3C"/>
<path fill-rule="evenodd" clip-rule="evenodd" d="M14 20.6256C12.3433 20.6256 11 21.9689 11 23.6256V28.6256H35V23.6256C35 21.9689 33.6567 20.6256 32 20.6256H14ZM9 23.6256C9 20.8643 11.2387 18.6256 14 18.6256H32C34.7613 18.6256 37 20.8643 37 23.6256V28.6256C37 29.7299 36.1043 30.6256 35 30.6256H11C9.89572 30.6256 9 29.7299 9 28.6256V23.6256Z" fill="#3C3C3C"/>
<path d="M32 23.6256C32.552 23.6256 33 24.0736 33 24.6256C33 25.1776 32.552 25.6256 32 25.6256C31.448 25.6256 31 25.1776 31 24.6256C31 24.0736 31.448 23.6256 32 23.6256Z" fill="#3C3C3C"/>
<path d="M14 23.6256C14.552 23.6256 15 24.0736 15 24.6256C15 25.1776 14.552 25.6256 14 25.6256C13.448 25.6256 13 25.1776 13 24.6256C13 24.0736 13.448 23.6256 14 23.6256Z" fill="#3C3C3C"/>
<path fill-rule="evenodd" clip-rule="evenodd" d="M15.693 12.6258L13.4428 18.6256H32.5566L30.3064 12.6258H15.693ZM13.8204 11.9234C14.1127 11.1434 14.8586 10.6256 15.6927 10.6256H30.3067C31.141 10.6256 31.8871 11.1437 32.1792 11.924L35.4428 20.6256H10.5566L13.8204 11.9234Z" fill="#3C3C3C"/>
<path d="M9 16.6256H12V18.6256H9V16.6256Z" fill="#3C3C3C"/>
<path d="M34 16.6256H37V18.6256H34V16.6256Z" fill="#3C3C3C"/>
<path fill-rule="evenodd" clip-rule="evenodd" d="M29 25.6256H17V23.6256H29V25.6256Z" fill="#3C3C3C"/>
</svg>
