<svg width="45" height="45" viewBox="0 0 45 45" fill="none" xmlns="http://www.w3.org/2000/svg">
<path d="M23.125 20.375H29.125" stroke="#3C3C3C" stroke-width="2"/>
<path d="M10.125 16.375H34.125" stroke="#3C3C3C" stroke-width="2"/>
<path d="M29.125 23.375V13.375C29.125 11.718 27.782 10.375 26.125 10.375C24.468 10.375 23.125 11.718 23.125 13.375M23.125 23.375V13.375C23.125 11.718 21.782 10.375 20.125 10.375C18.468 10.375 17.125 11.718 17.125 13.375" stroke="#3C3C3C" stroke-width="2"/>
<mask id="mask0_1021_48326" style="mask-type:alpha" maskUnits="userSpaceOnUse" x="2" y="18" width="41" height="21">
<path d="M42.018 18.2505V38.3975H2V18.2505H42.018Z" fill="black"/>
</mask>
<g mask="url(#mask0_1021_48326)">
<path d="M10.1357 34.8521C9.41174 34.8521 8.68774 34.6021 8.13574 34.1021C7.58374 33.6021 6.85974 33.3521 6.13574 33.3521C5.41174 33.3521 4.68774 33.6021 4.13574 34.1021C3.58374 34.6021 2.85974 34.8521 2.13574 34.8521C1.41174 34.8521 0.68774 34.6021 0.13574 34.1021C-0.41626 33.6021 -1.14026 33.3521 -1.86426 33.3521C-2.58826 33.3521 -3.31226 33.6021 -3.86426 34.1021C-4.41626 34.6021 -5.14026 34.8521 -5.86426 34.8521C-6.58826 34.8521 -7.31226 34.6021 -7.86426 34.1021C-8.41626 33.6021 -9.14026 33.3521 -9.86426 33.3521C-10.5883 33.3521 -11.3123 33.6021 -11.8643 34.1021C-12.4163 34.6021 -13.1403 34.8521 -13.8643 34.8521M58.1237 34.8661C57.3997 34.8661 56.6757 34.6161 56.1237 34.1161C55.5717 33.6161 54.8477 33.3661 54.1237 33.3661C53.3997 33.3661 52.6757 33.6161 52.1237 34.1161C51.5717 34.6161 50.8477 34.8661 50.1237 34.8661C49.3997 34.8661 48.6757 34.6161 48.1237 34.1161C47.5717 33.6161 46.8477 33.3661 46.1237 33.3661C45.3997 33.3661 44.6757 33.6161 44.1237 34.1161C43.5717 34.6161 42.8477 34.8661 42.1237 34.8661C41.3997 34.8661 40.6757 34.6161 40.1237 34.1161C39.5717 33.6161 38.8477 33.3661 38.1237 33.3661C37.3997 33.3661 36.6757 33.6161 36.1237 34.1161C35.5717 34.6161 34.8477 34.8661 34.1237 34.8661M34.1247 34.8751C33.4007 34.8751 32.6767 34.6251 32.1247 34.1251C31.5727 33.6251 30.8487 33.3751 30.1247 33.3751C29.4007 33.3751 28.6767 33.6251 28.1247 34.1251C27.5727 34.6251 26.8487 34.8751 26.1247 34.8751C25.4007 34.8751 24.6767 34.6251 24.1247 34.1251C23.5727 33.6251 22.8487 33.3751 22.1247 33.3751C21.4007 33.3751 20.6767 33.6251 20.1247 34.1251C19.5727 34.6251 18.8487 34.8751 18.1247 34.8751C17.4007 34.8751 16.6767 34.6251 16.1247 34.1251C15.5727 33.6251 14.8487 33.3751 14.1247 33.3751C13.4007 33.3751 12.6767 33.6251 12.1247 34.1251C11.5727 34.6251 10.8487 34.8751 10.1247 34.8751" stroke="#3C3C3C" stroke-width="2"/>
<path d="M10.1357 29.8521C9.41174 29.8521 8.68774 29.6021 8.13574 29.1021C7.58374 28.6021 6.85974 28.3521 6.13574 28.3521C5.41174 28.3521 4.68774 28.6021 4.13574 29.1021C3.58374 29.6021 2.85974 29.8521 2.13574 29.8521C1.41174 29.8521 0.68774 29.6021 0.13574 29.1021C-0.41626 28.6021 -1.14026 28.3521 -1.86426 28.3521C-2.58826 28.3521 -3.31226 28.6021 -3.86426 29.1021C-4.41626 29.6021 -5.14026 29.8521 -5.86426 29.8521C-6.58826 29.8521 -7.31226 29.6021 -7.86426 29.1021C-8.41626 28.6021 -9.14026 28.3521 -9.86426 28.3521C-10.5883 28.3521 -11.3123 28.6021 -11.8643 29.1021C-12.4163 29.6021 -13.1403 29.8521 -13.8643 29.8521M58.1237 29.8661C57.3997 29.8661 56.6757 29.6161 56.1237 29.1161C55.5717 28.6161 54.8477 28.3661 54.1237 28.3661C53.3997 28.3661 52.6757 28.6161 52.1237 29.1161C51.5717 29.6161 50.8477 29.8661 50.1237 29.8661C49.3997 29.8661 48.6757 29.6161 48.1237 29.1161C47.5717 28.6161 46.8477 28.3661 46.1237 28.3661C45.3997 28.3661 44.6757 28.6161 44.1237 29.1161C43.5717 29.6161 42.8477 29.8661 42.1237 29.8661C41.3997 29.8661 40.6757 29.6161 40.1237 29.1161C39.5717 28.6161 38.8477 28.3661 38.1237 28.3661C37.3997 28.3661 36.6757 28.6161 36.1237 29.1161C35.5717 29.6161 34.8477 29.8661 34.1237 29.8661M34.1247 29.8751C33.4007 29.8751 32.6767 29.6251 32.1247 29.1251C31.5727 28.6251 30.8487 28.3751 30.1247 28.3751C29.4007 28.3751 28.6767 28.6251 28.1247 29.1251C27.5727 29.6251 26.8487 29.8751 26.1247 29.8751C25.4007 29.8751 24.6767 29.6251 24.1247 29.1251C23.5727 28.6251 22.8487 28.3751 22.1247 28.3751C21.4007 28.3751 20.6767 28.6251 20.1247 29.1251C19.5727 29.6251 18.8487 29.8751 18.1247 29.8751C17.4007 29.8751 16.6767 29.6251 16.1247 29.1251C15.5727 28.6251 14.8487 28.3751 14.1247 28.3751C13.4007 28.3751 12.6767 28.6251 12.1247 29.1251C11.5727 29.6251 10.8487 29.8751 10.1247 29.8751" stroke="#3C3C3C" stroke-width="2"/>
<path d="M10.1357 24.8521C9.41174 24.8521 8.68774 24.6021 8.13574 24.1021C7.58374 23.6021 6.85974 23.3521 6.13574 23.3521C5.41174 23.3521 4.68774 23.6021 4.13574 24.1021C3.58374 24.6021 2.85974 24.8521 2.13574 24.8521C1.41174 24.8521 0.68774 24.6021 0.13574 24.1021C-0.41626 23.6021 -1.14026 23.3521 -1.86426 23.3521C-2.58826 23.3521 -3.31226 23.6021 -3.86426 24.1021C-4.41626 24.6021 -5.14026 24.8521 -5.86426 24.8521C-6.58826 24.8521 -7.31226 24.6021 -7.86426 24.1021C-8.41626 23.6021 -9.14026 23.3521 -9.86426 23.3521C-10.5883 23.3521 -11.3123 23.6021 -11.8643 24.1021C-12.4163 24.6021 -13.1403 24.8521 -13.8643 24.8521M58.1237 24.8661C57.3997 24.8661 56.6757 24.6161 56.1237 24.1161C55.5717 23.6161 54.8477 23.3661 54.1237 23.3661C53.3997 23.3661 52.6757 23.6161 52.1237 24.1161C51.5717 24.6161 50.8477 24.8661 50.1237 24.8661C49.3997 24.8661 48.6757 24.6161 48.1237 24.1161C47.5717 23.6161 46.8477 23.3661 46.1237 23.3661C45.3997 23.3661 44.6757 23.6161 44.1237 24.1161C43.5717 24.6161 42.8477 24.8661 42.1237 24.8661C41.3997 24.8661 40.6757 24.6161 40.1237 24.1161C39.5717 23.6161 38.8477 23.3661 38.1237 23.3661C37.3997 23.3661 36.6757 23.6161 36.1237 24.1161C35.5717 24.6161 34.8477 24.8661 34.1237 24.8661M34.1247 24.8751C33.4007 24.8751 32.6767 24.6251 32.1247 24.1251C31.5727 23.6251 30.8487 23.3751 30.1247 23.3751C29.4007 23.3751 28.6767 23.6251 28.1247 24.1251C27.5727 24.6251 26.8487 24.8751 26.1247 24.8751C25.4007 24.8751 24.6767 24.6251 24.1247 24.1251C23.5727 23.6251 22.8487 23.3751 22.1247 23.3751C21.4007 23.3751 20.6767 23.6251 20.1247 24.1251C19.5727 24.6251 18.8487 24.8751 18.1247 24.8751C17.4007 24.8751 16.6767 24.6251 16.1247 24.1251C15.5727 23.6251 14.8487 23.3751 14.1247 23.3751C13.4007 23.3751 12.6767 23.6251 12.1247 24.1251C11.5727 24.6251 10.8487 24.8751 10.1247 24.8751" stroke="#3C3C3C" stroke-width="2"/>
</g>
</svg>
